<svg width="209" height="246" viewBox="0 0 209 246" fill="none" xmlns="http://www.w3.org/2000/svg">
<g filter="url(#filter0_d_11_28)">
<rect x="30" y="157.929" width="149" height="42.0706" rx="5" fill="#9166F0"/>
</g>
<rect x="71.1941" y="175.459" width="60.4765" height="7.01176" rx="2" fill="white"/>
<g filter="url(#filter1_d_11_28)">
<rect x="39.6412" y="167.571" width="21.9118" height="22.7882" rx="3" fill="white"/>
</g>
<rect x="30" width="149" height="142" rx="5" fill="url(#paint0_linear_11_28)"/>
<path d="M57.1 30.8L60.48 20.82H63.84L58.66 35H55.4L50.2 20.82H53.68L57.1 30.8ZM72.783 35H69.583V20.82H72.783V35ZM89.6125 24.3L86.7725 25.1C86.7058 24.66 86.4858 24.2533 86.1125 23.88C85.7392 23.5067 85.1725 23.32 84.4125 23.32C83.8392 23.32 83.3725 23.4733 83.0125 23.78C82.6525 24.0733 82.4725 24.4267 82.4725 24.84C82.4725 25.5733 82.9392 26.0267 83.8725 26.2L85.7725 26.56C87.0792 26.8 88.0858 27.3133 88.7925 28.1C89.5125 28.8733 89.8725 29.78 89.8725 30.82C89.8725 32.0067 89.3992 33.0533 88.4525 33.96C87.5058 34.8533 86.2325 35.3 84.6325 35.3C82.8458 35.3 81.4592 34.84 80.4725 33.92C79.4992 32.9867 78.9525 31.9333 78.8325 30.76L81.7325 30.06C81.7992 30.7667 82.0725 31.3533 82.5525 31.82C83.0458 32.2733 83.7525 32.5 84.6725 32.5C85.2858 32.5 85.7725 32.3667 86.1325 32.1C86.4925 31.82 86.6725 31.46 86.6725 31.02C86.6725 30.66 86.5392 30.36 86.2725 30.12C86.0058 29.8667 85.6325 29.6933 85.1525 29.6L83.2125 29.24C82.0125 29.0133 81.0658 28.5267 80.3725 27.78C79.6925 27.0333 79.3525 26.1333 79.3525 25.08C79.3525 23.7733 79.8525 22.6867 80.8525 21.82C81.8525 20.9533 83.0458 20.52 84.4325 20.52C85.2725 20.52 86.0192 20.64 86.6725 20.88C87.3392 21.1067 87.8658 21.4133 88.2525 21.8C88.6392 22.1867 88.9392 22.5867 89.1525 23C89.3792 23.4133 89.5325 23.8467 89.6125 24.3ZM105.169 35L104.149 32.12H98.6689L97.6489 35H94.3289L99.6689 20.82H103.329L108.609 35H105.169ZM101.449 24.34L99.7089 29.24H103.149L101.449 24.34Z" fill="white"/>
<path d="M53.97 106.15C53.0033 106.15 52.1733 105.817 51.48 105.15C50.7933 104.483 50.45 103.583 50.45 102.45C50.45 101.69 50.6233 101.023 50.97 100.45C51.3167 99.8767 51.7533 99.4533 52.28 99.18C52.8067 98.9 53.37 98.76 53.97 98.76C54.77 98.76 55.4433 98.9633 55.99 99.37C56.5433 99.77 56.91 100.317 57.09 101.01L56.18 101.33C56.0467 100.797 55.79 100.387 55.41 100.1C55.03 99.8067 54.55 99.66 53.97 99.66C53.2767 99.66 52.6833 99.9067 52.19 100.4C51.6967 100.887 51.45 101.57 51.45 102.45C51.45 103.33 51.6967 104.017 52.19 104.51C52.6833 105.003 53.2767 105.25 53.97 105.25C54.55 105.25 55.0333 105.097 55.42 104.79C55.8067 104.477 56.0767 104.063 56.23 103.55L57.1 103.87C56.9067 104.557 56.5333 105.11 55.98 105.53C55.4333 105.943 54.7633 106.15 53.97 106.15ZM60.8235 101.14V102.14C60.6835 102.12 60.5468 102.11 60.4135 102.11C59.5335 102.11 59.0935 102.603 59.0935 103.59V106H58.1535V101.19H59.0735V102.03C59.3668 101.417 59.8468 101.11 60.5135 101.11C60.6202 101.11 60.7235 101.12 60.8235 101.14ZM62.3866 103.1H65.0166C65.0032 102.74 64.8832 102.447 64.6566 102.22C64.4299 101.987 64.1099 101.87 63.6966 101.87C63.3232 101.87 63.0166 101.993 62.7766 102.24C62.5366 102.48 62.4066 102.767 62.3866 103.1ZM65.1566 104.35L65.9666 104.63C65.8266 105.077 65.5666 105.443 65.1866 105.73C64.8066 106.01 64.3466 106.15 63.8066 106.15C63.1332 106.15 62.5599 105.92 62.0866 105.46C61.6199 104.993 61.3866 104.367 61.3866 103.58C61.3866 102.847 61.6132 102.24 62.0666 101.76C62.5199 101.28 63.0599 101.04 63.6866 101.04C64.4132 101.04 64.9799 101.27 65.3866 101.73C65.7932 102.183 65.9966 102.793 65.9966 103.56C65.9966 103.68 65.9899 103.78 65.9766 103.86H62.3566C62.3632 104.287 62.5032 104.637 62.7766 104.91C63.0566 105.183 63.3999 105.32 63.8066 105.32C64.4932 105.32 64.9432 104.997 65.1566 104.35ZM67.7565 103.58C67.7565 104.087 67.8798 104.5 68.1265 104.82C68.3798 105.14 68.7265 105.3 69.1665 105.3C69.5865 105.3 69.9232 105.137 70.1765 104.81C70.4298 104.483 70.5565 104.067 70.5565 103.56C70.5565 103.06 70.4332 102.657 70.1865 102.35C69.9398 102.043 69.6032 101.89 69.1765 101.89C68.7498 101.89 68.4065 102.047 68.1465 102.36C67.8865 102.673 67.7565 103.08 67.7565 103.58ZM70.5665 105.35V105.27C70.4398 105.517 70.2465 105.723 69.9865 105.89C69.7332 106.05 69.4298 106.13 69.0765 106.13C68.3898 106.13 67.8365 105.89 67.4165 105.41C67.0032 104.923 66.7965 104.313 66.7965 103.58C66.7965 102.88 67.0098 102.287 67.4365 101.8C67.8632 101.307 68.4098 101.06 69.0765 101.06C69.4698 101.06 69.7898 101.14 70.0365 101.3C70.2832 101.453 70.4532 101.643 70.5465 101.87V98.76H71.4765V105.11C71.4765 105.437 71.4932 105.733 71.5265 106H70.6165C70.5832 105.813 70.5665 105.597 70.5665 105.35ZM74.0054 106H73.0754V101.19H74.0054V106ZM73.0554 99.85C72.9287 99.7167 72.8654 99.5567 72.8654 99.37C72.8654 99.1833 72.9287 99.0233 73.0554 98.89C73.1887 98.7567 73.3487 98.69 73.5354 98.69C73.7221 98.69 73.8821 98.7567 74.0154 98.89C74.1487 99.0167 74.2154 99.1767 74.2154 99.37C74.2154 99.5567 74.1487 99.7167 74.0154 99.85C73.8821 99.9767 73.7221 100.04 73.5354 100.04C73.3487 100.04 73.1887 99.9767 73.0554 99.85ZM76.8647 99.67V101.19H77.9047V102.04H76.8647V104.54C76.8647 104.767 76.9147 104.933 77.0147 105.04C77.1214 105.147 77.2947 105.2 77.5347 105.2C77.6747 105.2 77.798 105.187 77.9047 105.16V105.96C77.7447 106.02 77.5314 106.05 77.2647 106.05C76.8514 106.05 76.5247 105.93 76.2847 105.69C76.0447 105.45 75.9247 105.113 75.9247 104.68V102.04H75.0047V101.19H75.2647C75.5114 101.19 75.6947 101.123 75.8147 100.99C75.9414 100.85 76.0047 100.67 76.0047 100.45V99.67H76.8647ZM87.3394 106H86.3594V102.85H82.7394V106H81.7594V98.91H82.7394V101.94H86.3594V98.91H87.3394V106ZM90.0322 104.86C90.3255 105.16 90.6822 105.31 91.1022 105.31C91.5222 105.31 91.8755 105.16 92.1622 104.86C92.4555 104.553 92.6022 104.13 92.6022 103.59C92.6022 103.057 92.4555 102.64 92.1622 102.34C91.8755 102.033 91.5222 101.88 91.1022 101.88C90.6822 101.88 90.3255 102.033 90.0322 102.34C89.7455 102.64 89.6022 103.057 89.6022 103.59C89.6022 104.13 89.7455 104.553 90.0322 104.86ZM89.3322 101.77C89.7989 101.283 90.3889 101.04 91.1022 101.04C91.8155 101.04 92.4022 101.283 92.8622 101.77C93.3289 102.25 93.5622 102.857 93.5622 103.59C93.5622 104.33 93.3322 104.943 92.8722 105.43C92.4122 105.91 91.8222 106.15 91.1022 106.15C90.3822 106.15 89.7922 105.91 89.3322 105.43C88.8722 104.943 88.6422 104.33 88.6422 103.59C88.6422 102.857 88.8722 102.25 89.3322 101.77ZM95.7048 106H94.7648V98.76H95.7048V106ZM97.8639 103.58C97.8639 104.087 97.9872 104.5 98.2339 104.82C98.4872 105.14 98.8339 105.3 99.2739 105.3C99.6939 105.3 100.031 105.137 100.284 104.81C100.537 104.483 100.664 104.067 100.664 103.56C100.664 103.06 100.541 102.657 100.294 102.35C100.047 102.043 99.7106 101.89 99.2839 101.89C98.8572 101.89 98.5139 102.047 98.2539 102.36C97.9939 102.673 97.8639 103.08 97.8639 103.58ZM100.674 105.35V105.27C100.547 105.517 100.354 105.723 100.094 105.89C99.8406 106.05 99.5372 106.13 99.1839 106.13C98.4972 106.13 97.9439 105.89 97.5239 105.41C97.1106 104.923 96.9039 104.313 96.9039 103.58C96.9039 102.88 97.1172 102.287 97.5439 101.8C97.9706 101.307 98.5172 101.06 99.1839 101.06C99.5772 101.06 99.8972 101.14 100.144 101.3C100.391 101.453 100.561 101.643 100.654 101.87V98.76H101.584V105.11C101.584 105.437 101.601 105.733 101.634 106H100.724C100.691 105.813 100.674 105.597 100.674 105.35ZM103.793 103.1H106.423C106.409 102.74 106.289 102.447 106.063 102.22C105.836 101.987 105.516 101.87 105.103 101.87C104.729 101.87 104.423 101.993 104.183 102.24C103.943 102.48 103.813 102.767 103.793 103.1ZM106.563 104.35L107.373 104.63C107.233 105.077 106.973 105.443 106.593 105.73C106.213 106.01 105.753 106.15 105.213 106.15C104.539 106.15 103.966 105.92 103.493 105.46C103.026 104.993 102.793 104.367 102.793 103.58C102.793 102.847 103.019 102.24 103.473 101.76C103.926 101.28 104.466 101.04 105.093 101.04C105.819 101.04 106.386 101.27 106.793 101.73C107.199 102.183 107.403 102.793 107.403 103.56C107.403 103.68 107.396 103.78 107.383 103.86H103.763C103.769 104.287 103.909 104.637 104.183 104.91C104.463 105.183 104.806 105.32 105.213 105.32C105.899 105.32 106.349 104.997 106.563 104.35ZM111.273 101.14V102.14C111.133 102.12 110.996 102.11 110.863 102.11C109.983 102.11 109.543 102.603 109.543 103.59V106H108.603V101.19H109.523V102.03C109.816 101.417 110.296 101.11 110.963 101.11C111.069 101.11 111.173 101.12 111.273 101.14ZM120.705 106H119.685L115.855 100.22V106H114.875V98.91H116.185L119.725 104.35V98.91H120.705V106ZM122.053 104.71C122.053 104.297 122.186 103.967 122.453 103.72C122.719 103.467 123.073 103.31 123.513 103.25L124.813 103.06C125.059 103.027 125.183 102.907 125.183 102.7C125.183 102.447 125.096 102.24 124.923 102.08C124.749 101.92 124.489 101.84 124.143 101.84C123.823 101.84 123.569 101.93 123.383 102.11C123.196 102.283 123.086 102.517 123.053 102.81L122.153 102.6C122.199 102.14 122.409 101.767 122.783 101.48C123.156 101.187 123.603 101.04 124.123 101.04C124.803 101.04 125.306 101.207 125.633 101.54C125.959 101.867 126.123 102.287 126.123 102.8V105.21C126.123 105.497 126.143 105.76 126.183 106H125.263C125.229 105.8 125.213 105.583 125.213 105.35C125.079 105.563 124.883 105.75 124.623 105.91C124.369 106.07 124.049 106.15 123.663 106.15C123.189 106.15 122.803 106.01 122.503 105.73C122.203 105.443 122.053 105.103 122.053 104.71ZM123.793 105.36C124.213 105.36 124.549 105.247 124.803 105.02C125.056 104.793 125.183 104.433 125.183 103.94V103.72L123.713 103.94C123.499 103.973 123.329 104.05 123.203 104.17C123.076 104.29 123.013 104.453 123.013 104.66C123.013 104.847 123.083 105.01 123.223 105.15C123.369 105.29 123.559 105.36 123.793 105.36ZM128.517 106H127.587V101.19H128.487V101.83C128.634 101.577 128.84 101.383 129.107 101.25C129.374 101.117 129.654 101.05 129.947 101.05C130.26 101.05 130.547 101.127 130.807 101.28C131.067 101.433 131.26 101.66 131.387 101.96C131.72 101.353 132.257 101.05 132.997 101.05C133.457 101.05 133.847 101.207 134.167 101.52C134.494 101.833 134.657 102.287 134.657 102.88V106H133.727V102.98C133.727 102.647 133.64 102.38 133.467 102.18C133.3 101.98 133.047 101.88 132.707 101.88C132.38 101.88 132.114 101.997 131.907 102.23C131.7 102.457 131.597 102.743 131.597 103.09V106H130.657V102.98C130.657 102.647 130.57 102.38 130.397 102.18C130.23 101.98 129.977 101.88 129.637 101.88C129.304 101.88 129.034 101.993 128.827 102.22C128.62 102.447 128.517 102.74 128.517 103.1V106ZM136.771 103.1H139.401C139.388 102.74 139.268 102.447 139.041 102.22C138.815 101.987 138.495 101.87 138.081 101.87C137.708 101.87 137.401 101.993 137.161 102.24C136.921 102.48 136.791 102.767 136.771 103.1ZM139.541 104.35L140.351 104.63C140.211 105.077 139.951 105.443 139.571 105.73C139.191 106.01 138.731 106.15 138.191 106.15C137.518 106.15 136.945 105.92 136.471 105.46C136.005 104.993 135.771 104.367 135.771 103.58C135.771 102.847 135.998 102.24 136.451 101.76C136.905 101.28 137.445 101.04 138.071 101.04C138.798 101.04 139.365 101.27 139.771 101.73C140.178 102.183 140.381 102.793 140.381 103.56C140.381 103.68 140.375 103.78 140.361 103.86H136.741C136.748 104.287 136.888 104.637 137.161 104.91C137.441 105.183 137.785 105.32 138.191 105.32C138.878 105.32 139.328 104.997 139.541 104.35Z" fill="white"/>
<path d="M54.78 67.52V68.46C54.6133 68.5933 54.45 68.7367 54.29 68.89C54.13 69.0433 53.9167 69.29 53.65 69.63C53.39 69.97 53.16 70.33 52.96 70.71C52.76 71.09 52.57 71.5733 52.39 72.16C52.2167 72.74 52.1 73.3533 52.04 74H51.03C51.07 73.4867 51.15 72.99 51.27 72.51C51.39 72.0233 51.53 71.6 51.69 71.24C51.85 70.88 52.02 70.5433 52.2 70.23C52.3867 69.91 52.5667 69.6433 52.74 69.43C52.92 69.21 53.08 69.0233 53.22 68.87C53.3667 68.7167 53.4833 68.6033 53.57 68.53L53.7 68.42H50.05V67.52H54.78ZM57.084 70.99L56.604 70.18L58.514 68.42H55.414V67.52H59.814V68.4L57.964 70.11C58.4907 70.11 58.954 70.2833 59.354 70.63C59.7607 70.9767 59.964 71.46 59.964 72.08C59.964 72.6533 59.754 73.1433 59.334 73.55C58.914 73.9567 58.3407 74.16 57.614 74.16C56.9007 74.16 56.3273 73.9633 55.894 73.57C55.4673 73.17 55.2373 72.6867 55.204 72.12L56.164 71.9C56.184 72.32 56.3273 72.66 56.594 72.92C56.8673 73.1733 57.204 73.3 57.604 73.3C58.0307 73.3 58.364 73.1867 58.604 72.96C58.8507 72.7267 58.974 72.44 58.974 72.1C58.974 71.7067 58.844 71.4067 58.584 71.2C58.324 70.9933 58.014 70.89 57.654 70.89C57.4607 70.89 57.2707 70.9233 57.084 70.99ZM63.1613 70.28C63.508 70.2733 63.7947 70.1733 64.0213 69.98C64.248 69.7867 64.3613 69.5333 64.3613 69.22C64.3613 68.9267 64.2513 68.68 64.0313 68.48C63.8113 68.28 63.5213 68.18 63.1613 68.18C62.8013 68.18 62.5113 68.28 62.2913 68.48C62.0713 68.68 61.9613 68.9267 61.9613 69.22C61.9613 69.5333 62.0747 69.7867 62.3013 69.98C62.528 70.1733 62.8147 70.2733 63.1613 70.28ZM62.1613 72.99C62.408 73.1967 62.7413 73.3 63.1613 73.3C63.5813 73.3 63.9113 73.1967 64.1513 72.99C64.398 72.7833 64.5213 72.5233 64.5213 72.21C64.5213 71.89 64.398 71.6267 64.1513 71.42C63.9113 71.2067 63.5813 71.1 63.1613 71.1C62.7413 71.1 62.408 71.2067 62.1613 71.42C61.9213 71.6267 61.8013 71.89 61.8013 72.21C61.8013 72.5233 61.9213 72.7833 62.1613 72.99ZM64.8813 73.63C64.4613 73.9767 63.888 74.15 63.1613 74.15C62.4347 74.15 61.8613 73.9767 61.4413 73.63C61.0213 73.2767 60.8113 72.83 60.8113 72.29C60.8113 71.91 60.9247 71.58 61.1513 71.3C61.3847 71.0133 61.6813 70.81 62.0413 70.69C61.7347 70.5767 61.4813 70.3833 61.2813 70.11C61.0813 69.83 60.9813 69.5167 60.9813 69.17C60.9813 68.6433 61.188 68.2133 61.6013 67.88C62.0147 67.54 62.5347 67.37 63.1613 67.37C63.788 67.37 64.308 67.54 64.7213 67.88C65.1347 68.2133 65.3413 68.6433 65.3413 69.17C65.3413 69.51 65.2413 69.82 65.0413 70.1C64.8413 70.38 64.588 70.5767 64.2813 70.69C64.6413 70.8033 64.9347 71.0033 65.1613 71.29C65.3947 71.5767 65.5113 71.91 65.5113 72.29C65.5113 72.83 65.3013 73.2767 64.8813 73.63ZM68.207 70.99L67.727 70.18L69.637 68.42H66.537V67.52H70.937V68.4L69.087 70.11C69.6137 70.11 70.077 70.2833 70.477 70.63C70.8837 70.9767 71.087 71.46 71.087 72.08C71.087 72.6533 70.877 73.1433 70.457 73.55C70.037 73.9567 69.4637 74.16 68.737 74.16C68.0237 74.16 67.4504 73.9633 67.017 73.57C66.5904 73.17 66.3604 72.6867 66.327 72.12L67.287 71.9C67.307 72.32 67.4504 72.66 67.717 72.92C67.9904 73.1733 68.327 73.3 68.727 73.3C69.1537 73.3 69.487 73.1867 69.727 72.96C69.9737 72.7267 70.097 72.44 70.097 72.1C70.097 71.7067 69.967 71.4067 69.707 71.2C69.447 70.9933 69.137 70.89 68.777 70.89C68.5837 70.89 68.3937 70.9233 68.207 70.99ZM76.7844 70.28C77.131 70.2733 77.4177 70.1733 77.6444 69.98C77.871 69.7867 77.9844 69.5333 77.9844 69.22C77.9844 68.9267 77.8744 68.68 77.6544 68.48C77.4344 68.28 77.1444 68.18 76.7844 68.18C76.4244 68.18 76.1344 68.28 75.9144 68.48C75.6944 68.68 75.5844 68.9267 75.5844 69.22C75.5844 69.5333 75.6977 69.7867 75.9244 69.98C76.151 70.1733 76.4377 70.2733 76.7844 70.28ZM75.7844 72.99C76.031 73.1967 76.3644 73.3 76.7844 73.3C77.2044 73.3 77.5344 73.1967 77.7744 72.99C78.021 72.7833 78.1444 72.5233 78.1444 72.21C78.1444 71.89 78.021 71.6267 77.7744 71.42C77.5344 71.2067 77.2044 71.1 76.7844 71.1C76.3644 71.1 76.031 71.2067 75.7844 71.42C75.5444 71.6267 75.4244 71.89 75.4244 72.21C75.4244 72.5233 75.5444 72.7833 75.7844 72.99ZM78.5044 73.63C78.0844 73.9767 77.511 74.15 76.7844 74.15C76.0577 74.15 75.4844 73.9767 75.0644 73.63C74.6444 73.2767 74.4344 72.83 74.4344 72.29C74.4344 71.91 74.5477 71.58 74.7744 71.3C75.0077 71.0133 75.3044 70.81 75.6644 70.69C75.3577 70.5767 75.1044 70.3833 74.9044 70.11C74.7044 69.83 74.6044 69.5167 74.6044 69.17C74.6044 68.6433 74.811 68.2133 75.2244 67.88C75.6377 67.54 76.1577 67.37 76.7844 67.37C77.411 67.37 77.931 67.54 78.3444 67.88C78.7577 68.2133 78.9644 68.6433 78.9644 69.17C78.9644 69.51 78.8644 69.82 78.6644 70.1C78.4644 70.38 78.211 70.5767 77.9044 70.69C78.2644 70.8033 78.5577 71.0033 78.7844 71.29C79.0177 71.5767 79.1344 71.91 79.1344 72.29C79.1344 72.83 78.9244 73.2767 78.5044 73.63ZM80.9901 69.85L80.0101 69.73C80.0034 69.67 80.0001 69.5833 80.0001 69.47C80.0001 68.89 80.2034 68.3967 80.6101 67.99C81.0167 67.5767 81.5601 67.37 82.2401 67.37C82.9134 67.37 83.4467 67.5633 83.8401 67.95C84.2334 68.33 84.4301 68.8 84.4301 69.36C84.4301 70.18 84.0234 70.8467 83.2101 71.36L81.9301 72.18C81.4701 72.4733 81.2067 72.7767 81.1401 73.09H84.4701V74H79.9301C79.9434 73.4533 80.0667 72.9733 80.3001 72.56C80.5401 72.1467 80.9301 71.7667 81.4701 71.42L82.5501 70.72C83.1434 70.34 83.4401 69.89 83.4401 69.37C83.4401 69.05 83.3334 68.78 83.1201 68.56C82.9067 68.34 82.6067 68.23 82.2201 68.23C81.8134 68.23 81.5034 68.3533 81.2901 68.6C81.0767 68.8467 80.9701 69.1667 80.9701 69.56C80.9701 69.62 80.9767 69.7167 80.9901 69.85ZM87.123 70.99L86.643 70.18L88.553 68.42H85.453V67.52H89.853V68.4L88.003 70.11C88.5297 70.11 88.993 70.2833 89.393 70.63C89.7997 70.9767 90.003 71.46 90.003 72.08C90.003 72.6533 89.793 73.1433 89.373 73.55C88.953 73.9567 88.3797 74.16 87.653 74.16C86.9397 74.16 86.3664 73.9633 85.933 73.57C85.5064 73.17 85.2764 72.6867 85.243 72.12L86.203 71.9C86.223 72.32 86.3664 72.66 86.633 72.92C86.9064 73.1733 87.243 73.3 87.643 73.3C88.0697 73.3 88.403 73.1867 88.643 72.96C88.8897 72.7267 89.013 72.44 89.013 72.1C89.013 71.7067 88.883 71.4067 88.623 71.2C88.363 70.9933 88.053 70.89 87.693 70.89C87.4997 70.89 87.3097 70.9233 87.123 70.99ZM90.9704 73.77L91.2904 72.96C91.6304 73.1667 92.0237 73.27 92.4704 73.27C93.2104 73.27 93.7637 73.06 94.1304 72.64C94.5037 72.2133 94.7004 71.6567 94.7204 70.97C94.5937 71.2033 94.3837 71.4 94.0904 71.56C93.8037 71.72 93.4537 71.8 93.0404 71.8C92.4404 71.8 91.9171 71.6067 91.4704 71.22C91.0237 70.8267 90.8004 70.29 90.8004 69.61C90.8004 68.9567 91.0337 68.42 91.5004 68C91.9737 67.58 92.5371 67.37 93.1904 67.37C93.8837 67.37 94.4771 67.6233 94.9704 68.13C95.4637 68.6367 95.7104 69.3767 95.7104 70.35C95.7104 71.5633 95.4371 72.5 94.8904 73.16C94.3504 73.82 93.5437 74.15 92.4704 74.15C92.2171 74.15 91.9437 74.1133 91.6504 74.04C91.3571 73.9667 91.1304 73.8767 90.9704 73.77ZM94.5904 69.59C94.5904 69.19 94.4504 68.8633 94.1704 68.61C93.8904 68.3567 93.5637 68.23 93.1904 68.23C92.8104 68.23 92.4804 68.3567 92.2004 68.61C91.9271 68.8567 91.7904 69.1833 91.7904 69.59C91.7904 70.01 91.9271 70.3433 92.2004 70.59C92.4737 70.8367 92.8037 70.96 93.1904 70.96C93.5704 70.96 93.8971 70.8367 94.1704 70.59C94.4504 70.3367 94.5904 70.0033 94.5904 69.59ZM101.301 66.91V68.25L102.531 67.83L102.761 68.55L101.521 68.96L102.341 70.01L101.731 70.47L100.901 69.38L100.121 70.46L99.5109 70L100.301 68.96L99.0609 68.55L99.2909 67.83L100.511 68.26V66.91H101.301ZM105.705 66.91V68.25L106.935 67.83L107.165 68.55L105.925 68.96L106.745 70.01L106.135 70.47L105.305 69.38L104.525 70.46L103.915 70L104.705 68.96L103.465 68.55L103.695 67.83L104.915 68.26V66.91H105.705ZM110.11 66.91V68.25L111.34 67.83L111.57 68.55L110.33 68.96L111.15 70.01L110.54 70.47L109.71 69.38L108.93 70.46L108.32 70L109.11 68.96L107.87 68.55L108.1 67.83L109.32 68.26V66.91H110.11ZM114.514 66.91V68.25L115.744 67.83L115.974 68.55L114.734 68.96L115.554 70.01L114.944 70.47L114.114 69.38L113.334 70.46L112.724 70L113.514 68.96L112.274 68.55L112.504 67.83L113.724 68.26V66.91H114.514ZM121.418 66.91V68.25L122.648 67.83L122.878 68.55L121.638 68.96L122.458 70.01L121.848 70.47L121.018 69.38L120.238 70.46L119.628 70L120.418 68.96L119.178 68.55L119.408 67.83L120.628 68.26V66.91H121.418ZM125.822 66.91V68.25L127.052 67.83L127.282 68.55L126.042 68.96L126.862 70.01L126.252 70.47L125.422 69.38L124.642 70.46L124.032 70L124.822 68.96L123.582 68.55L123.812 67.83L125.032 68.26V66.91H125.822ZM130.227 66.91V68.25L131.457 67.83L131.687 68.55L130.447 68.96L131.267 70.01L130.657 70.47L129.827 69.38L129.047 70.46L128.437 70L129.227 68.96L127.987 68.55L128.217 67.83L129.437 68.26V66.91H130.227ZM134.631 66.91V68.25L135.861 67.83L136.091 68.55L134.851 68.96L135.671 70.01L135.061 70.47L134.231 69.38L133.451 70.46L132.841 70L133.631 68.96L132.391 68.55L132.621 67.83L133.841 68.26V66.91H134.631Z" fill="white"/>
<path d="M57.812 115.44L56.076 115.972C56.0107 115.617 55.8333 115.295 55.544 115.006C55.2547 114.717 54.83 114.572 54.27 114.572C53.8127 114.572 53.4393 114.698 53.15 114.95C52.8607 115.193 52.716 115.487 52.716 115.832C52.716 116.439 53.0753 116.812 53.794 116.952L55.18 117.218C56.0573 117.386 56.7387 117.736 57.224 118.268C57.7093 118.8 57.952 119.425 57.952 120.144C57.952 120.965 57.6253 121.684 56.972 122.3C56.328 122.907 55.46 123.21 54.368 123.21C53.7427 123.21 53.178 123.117 52.674 122.93C52.17 122.743 51.764 122.496 51.456 122.188C51.148 121.871 50.9053 121.539 50.728 121.194C50.56 120.839 50.4573 120.475 50.42 120.102L52.212 119.626C52.2587 120.158 52.464 120.601 52.828 120.956C53.2013 121.311 53.7193 121.488 54.382 121.488C54.886 121.488 55.278 121.376 55.558 121.152C55.8473 120.928 55.992 120.634 55.992 120.27C55.992 119.981 55.8847 119.733 55.67 119.528C55.4647 119.313 55.1707 119.169 54.788 119.094L53.402 118.814C52.5993 118.646 51.9647 118.315 51.498 117.82C51.0313 117.325 50.798 116.709 50.798 115.972C50.798 115.095 51.134 114.357 51.806 113.76C52.4873 113.163 53.304 112.864 54.256 112.864C54.8253 112.864 55.334 112.943 55.782 113.102C56.23 113.261 56.5893 113.475 56.86 113.746C57.1307 114.007 57.3407 114.278 57.49 114.558C57.6393 114.838 57.7467 115.132 57.812 115.44ZM61.2369 118.954V123H59.3749V112.864H61.2369V116.686C61.6569 116.182 62.2775 115.93 63.0989 115.93C63.9389 115.93 64.5735 116.187 65.0029 116.7C65.4415 117.204 65.6609 117.857 65.6609 118.66V123H63.7989V118.982C63.7989 118.571 63.6915 118.24 63.4769 117.988C63.2715 117.736 62.9542 117.61 62.5249 117.61C62.1422 117.61 61.8342 117.736 61.6009 117.988C61.3769 118.24 61.2555 118.562 61.2369 118.954ZM67.1306 121.124C67.1306 120.536 67.322 120.065 67.7046 119.71C68.0873 119.355 68.582 119.131 69.1886 119.038L70.8826 118.786C71.228 118.739 71.4006 118.576 71.4006 118.296C71.4006 118.035 71.298 117.82 71.0926 117.652C70.8966 117.484 70.612 117.4 70.2386 117.4C69.8466 117.4 69.534 117.507 69.3006 117.722C69.0766 117.937 68.9506 118.203 68.9226 118.52L67.2706 118.17C67.336 117.573 67.63 117.045 68.1526 116.588C68.6753 116.131 69.366 115.902 70.2246 115.902C71.2513 115.902 72.0073 116.149 72.4926 116.644C72.978 117.129 73.2206 117.755 73.2206 118.52V121.908C73.2206 122.319 73.2486 122.683 73.3046 123H71.5966C71.55 122.795 71.5266 122.519 71.5266 122.174C71.088 122.855 70.4113 123.196 69.4966 123.196C68.7873 123.196 68.2133 122.991 67.7746 122.58C67.3453 122.169 67.1306 121.684 67.1306 121.124ZM69.8886 121.81C70.3273 121.81 70.6866 121.689 70.9666 121.446C71.256 121.194 71.4006 120.783 71.4006 120.214V119.906L69.8466 120.144C69.2773 120.228 68.9926 120.517 68.9926 121.012C68.9926 121.236 69.072 121.427 69.2306 121.586C69.3893 121.735 69.6086 121.81 69.8886 121.81ZM76.9595 123H75.0975V116.112H76.8755V116.952C77.0528 116.635 77.3328 116.383 77.7155 116.196C78.0982 116.009 78.4902 115.916 78.8915 115.916C79.8902 115.916 80.5715 116.299 80.9355 117.064C81.4302 116.299 82.1582 115.916 83.1195 115.916C83.8195 115.916 84.4075 116.135 84.8835 116.574C85.3688 117.013 85.6115 117.666 85.6115 118.534V123H83.8055V118.912C83.8055 118.52 83.7028 118.207 83.4975 117.974C83.3015 117.731 82.9982 117.61 82.5875 117.61C82.2048 117.61 81.8968 117.741 81.6635 118.002C81.4302 118.263 81.3135 118.585 81.3135 118.968V123H79.4655V118.912C79.4655 118.52 79.3628 118.207 79.1575 117.974C78.9522 117.731 78.6488 117.61 78.2475 117.61C77.8555 117.61 77.5428 117.741 77.3095 118.002C77.0762 118.254 76.9595 118.576 76.9595 118.968V123ZM89.3599 123H87.4979V116.112H89.3599V123ZM87.2739 113.858C87.2739 113.541 87.3859 113.27 87.6099 113.046C87.8339 112.813 88.1046 112.696 88.4219 112.696C88.7392 112.696 89.0099 112.808 89.2339 113.032C89.4579 113.256 89.5699 113.531 89.5699 113.858C89.5699 114.166 89.4579 114.432 89.2339 114.656C89.0099 114.88 88.7392 114.992 88.4219 114.992C88.1046 114.992 87.8339 114.88 87.6099 114.656C87.3859 114.432 87.2739 114.166 87.2739 113.858ZM93.2154 123H91.3534V116.112H93.1314V116.952C93.3087 116.635 93.5887 116.383 93.9714 116.196C94.354 116.009 94.746 115.916 95.1474 115.916C96.146 115.916 96.8274 116.299 97.1914 117.064C97.686 116.299 98.414 115.916 99.3754 115.916C100.075 115.916 100.663 116.135 101.139 116.574C101.625 117.013 101.867 117.666 101.867 118.534V123H100.061V118.912C100.061 118.52 99.9587 118.207 99.7534 117.974C99.5574 117.731 99.254 117.61 98.8434 117.61C98.4607 117.61 98.1527 117.741 97.9194 118.002C97.686 118.263 97.5694 118.585 97.5694 118.968V123H95.7214V118.912C95.7214 118.52 95.6187 118.207 95.4134 117.974C95.208 117.731 94.9047 117.61 94.5034 117.61C94.1114 117.61 93.7987 117.741 93.5654 118.002C93.332 118.254 93.2154 118.576 93.2154 118.968V123ZM115.557 123H113.611V118.884H109.285V123H107.353V113.074H109.285V117.064H113.611V113.074H115.557V123ZM119.492 120.998C119.838 121.343 120.253 121.516 120.738 121.516C121.224 121.516 121.634 121.343 121.97 120.998C122.316 120.653 122.488 120.172 122.488 119.556C122.488 118.94 122.316 118.459 121.97 118.114C121.634 117.769 121.224 117.596 120.738 117.596C120.253 117.596 119.838 117.769 119.492 118.114C119.156 118.459 118.988 118.94 118.988 119.556C118.988 120.172 119.156 120.653 119.492 120.998ZM118.148 116.938C118.839 116.247 119.702 115.902 120.738 115.902C121.774 115.902 122.633 116.247 123.314 116.938C124.005 117.629 124.35 118.501 124.35 119.556C124.35 120.611 124.005 121.483 123.314 122.174C122.633 122.865 121.774 123.21 120.738 123.21C119.702 123.21 118.839 122.865 118.148 122.174C117.467 121.483 117.126 120.611 117.126 119.556C117.126 118.501 117.467 117.629 118.148 116.938ZM125.232 121.082L126.828 120.732C126.847 121.031 126.964 121.283 127.178 121.488C127.402 121.684 127.706 121.782 128.088 121.782C128.378 121.782 128.602 121.717 128.76 121.586C128.919 121.455 128.998 121.292 128.998 121.096C128.998 120.751 128.751 120.527 128.256 120.424L127.346 120.214C126.702 120.074 126.217 119.822 125.89 119.458C125.573 119.094 125.414 118.66 125.414 118.156C125.414 117.531 125.657 116.999 126.142 116.56C126.637 116.121 127.253 115.902 127.99 115.902C128.457 115.902 128.868 115.972 129.222 116.112C129.577 116.243 129.852 116.415 130.048 116.63C130.244 116.835 130.394 117.045 130.496 117.26C130.599 117.475 130.664 117.685 130.692 117.89L129.138 118.24C129.101 117.997 128.989 117.783 128.802 117.596C128.625 117.409 128.359 117.316 128.004 117.316C127.762 117.316 127.552 117.381 127.374 117.512C127.206 117.643 127.122 117.806 127.122 118.002C127.122 118.338 127.332 118.543 127.752 118.618L128.732 118.828C129.395 118.968 129.899 119.225 130.244 119.598C130.599 119.971 130.776 120.419 130.776 120.942C130.776 121.558 130.543 122.09 130.076 122.538C129.61 122.986 128.952 123.21 128.102 123.21C127.617 123.21 127.183 123.14 126.8 123C126.418 122.851 126.119 122.664 125.904 122.44C125.699 122.207 125.54 121.978 125.428 121.754C125.326 121.521 125.26 121.297 125.232 121.082ZM131.685 121.082L133.281 120.732C133.3 121.031 133.417 121.283 133.631 121.488C133.855 121.684 134.159 121.782 134.541 121.782C134.831 121.782 135.055 121.717 135.213 121.586C135.372 121.455 135.451 121.292 135.451 121.096C135.451 120.751 135.204 120.527 134.709 120.424L133.799 120.214C133.155 120.074 132.67 119.822 132.343 119.458C132.026 119.094 131.867 118.66 131.867 118.156C131.867 117.531 132.11 116.999 132.595 116.56C133.09 116.121 133.706 115.902 134.443 115.902C134.91 115.902 135.321 115.972 135.675 116.112C136.03 116.243 136.305 116.415 136.501 116.63C136.697 116.835 136.847 117.045 136.949 117.26C137.052 117.475 137.117 117.685 137.145 117.89L135.591 118.24C135.554 117.997 135.442 117.783 135.255 117.596C135.078 117.409 134.812 117.316 134.457 117.316C134.215 117.316 134.005 117.381 133.827 117.512C133.659 117.643 133.575 117.806 133.575 118.002C133.575 118.338 133.785 118.543 134.205 118.618L135.185 118.828C135.848 118.968 136.352 119.225 136.697 119.598C137.052 119.971 137.229 120.419 137.229 120.942C137.229 121.558 136.996 122.09 136.529 122.538C136.063 122.986 135.405 123.21 134.555 123.21C134.07 123.21 133.636 123.14 133.253 123C132.871 122.851 132.572 122.664 132.357 122.44C132.152 122.207 131.993 121.978 131.881 121.754C131.779 121.521 131.713 121.297 131.685 121.082ZM138.252 121.124C138.252 120.536 138.443 120.065 138.826 119.71C139.208 119.355 139.703 119.131 140.31 119.038L142.004 118.786C142.349 118.739 142.522 118.576 142.522 118.296C142.522 118.035 142.419 117.82 142.214 117.652C142.018 117.484 141.733 117.4 141.36 117.4C140.968 117.4 140.655 117.507 140.422 117.722C140.198 117.937 140.072 118.203 140.044 118.52L138.392 118.17C138.457 117.573 138.751 117.045 139.274 116.588C139.796 116.131 140.487 115.902 141.346 115.902C142.372 115.902 143.128 116.149 143.614 116.644C144.099 117.129 144.342 117.755 144.342 118.52V121.908C144.342 122.319 144.37 122.683 144.426 123H142.718C142.671 122.795 142.648 122.519 142.648 122.174C142.209 122.855 141.532 123.196 140.618 123.196C139.908 123.196 139.334 122.991 138.896 122.58C138.466 122.169 138.252 121.684 138.252 121.124ZM141.01 121.81C141.448 121.81 141.808 121.689 142.088 121.446C142.377 121.194 142.522 120.783 142.522 120.214V119.906L140.968 120.144C140.398 120.228 140.114 120.517 140.114 121.012C140.114 121.236 140.193 121.427 140.352 121.586C140.51 121.735 140.73 121.81 141.01 121.81ZM148.081 123H146.219V116.112H148.081V123ZM145.995 113.858C145.995 113.541 146.107 113.27 146.331 113.046C146.555 112.813 146.825 112.696 147.143 112.696C147.46 112.696 147.731 112.808 147.955 113.032C148.179 113.256 148.291 113.531 148.291 113.858C148.291 114.166 148.179 114.432 147.955 114.656C147.731 114.88 147.46 114.992 147.143 114.992C146.825 114.992 146.555 114.88 146.331 114.656C146.107 114.432 145.995 114.166 145.995 113.858ZM151.936 119.038V123H150.074V116.112H151.88V116.966C152.076 116.63 152.356 116.373 152.72 116.196C153.084 116.019 153.467 115.93 153.868 115.93C154.68 115.93 155.296 116.187 155.716 116.7C156.145 117.204 156.36 117.857 156.36 118.66V123H154.498V118.982C154.498 118.571 154.391 118.24 154.176 117.988C153.971 117.736 153.653 117.61 153.224 117.61C152.832 117.61 152.519 117.745 152.286 118.016C152.053 118.287 151.936 118.627 151.936 119.038Z" fill="white"/>
<g clip-path="url(#clip0_11_28)">
<path d="M57.08 174.819C57.0549 174.652 56.925 174.514 56.7495 174.469L51.1226 173.016C51.0424 172.995 50.9577 172.995 50.8774 173.016L45.2506 174.469C45.075 174.514 44.9451 174.652 44.92 174.819C44.8874 175.037 44.1428 180.186 46.0525 182.747C47.9599 185.306 50.7738 185.961 50.8926 185.988C50.9279 185.996 50.9639 186 51 186C51.0361 186 51.0721 185.996 51.1074 185.988C51.2263 185.961 54.0402 185.306 55.9475 182.747C57.8572 180.186 57.1127 175.037 57.08 174.819ZM54.6286 177.825L50.7905 181.389C50.7012 181.472 50.5841 181.514 50.467 181.514C50.35 181.514 50.2328 181.472 50.1435 181.389L47.7705 179.186C47.6847 179.106 47.6365 178.998 47.6365 178.885C47.6365 178.773 47.6847 178.665 47.7705 178.585L48.2417 178.147C48.4204 177.982 48.7101 177.981 48.8887 178.147L50.467 179.613L53.5104 176.787C53.5962 176.707 53.7126 176.663 53.8339 176.663C53.9553 176.663 54.0717 176.707 54.1574 176.787L54.6286 177.224C54.8073 177.39 54.8073 177.659 54.6286 177.825Z" fill="#FE6C9D"/>
</g>
<defs>
<filter id="filter0_d_11_28" x="0" y="135.929" width="209" height="102.071" filterUnits="userSpaceOnUse" color-interpolation-filters="sRGB">
<feFlood flood-opacity="0" result="BackgroundImageFix"/>
<feColorMatrix in="SourceAlpha" type="matrix" values="0 0 0 0 0 0 0 0 0 0 0 0 0 0 0 0 0 0 127 0" result="hardAlpha"/>
<feOffset dy="8"/>
<feGaussianBlur stdDeviation="15"/>
<feColorMatrix type="matrix" values="0 0 0 0 0.572549 0 0 0 0 0.407843 0 0 0 0 0.937255 0 0 0 0.35 0"/>
<feBlend mode="normal" in2="BackgroundImageFix" result="effect1_dropShadow_11_28"/>
<feBlend mode="normal" in="SourceGraphic" in2="effect1_dropShadow_11_28" result="shape"/>
</filter>
<filter id="filter1_d_11_28" x="4.64117" y="152.571" width="91.9117" height="92.7882" filterUnits="userSpaceOnUse" color-interpolation-filters="sRGB">
<feFlood flood-opacity="0" result="BackgroundImageFix"/>
<feColorMatrix in="SourceAlpha" type="matrix" values="0 0 0 0 0 0 0 0 0 0 0 0 0 0 0 0 0 0 127 0" result="hardAlpha"/>
<feOffset dy="20"/>
<feGaussianBlur stdDeviation="17.5"/>
<feColorMatrix type="matrix" values="0 0 0 0 0.743472 0 0 0 0 0.800425 0 0 0 0 0.841667 0 0 0 0.25 0"/>
<feBlend mode="normal" in2="BackgroundImageFix" result="effect1_dropShadow_11_28"/>
<feBlend mode="normal" in="SourceGraphic" in2="effect1_dropShadow_11_28" result="shape"/>
</filter>
<linearGradient id="paint0_linear_11_28" x1="30" y1="0" x2="138.64" y2="168.086" gradientUnits="userSpaceOnUse">
<stop offset="0.216691" stop-color="#FF98F6"/>
<stop offset="0.904851" stop-color="#77C3FF"/>
</linearGradient>
<clipPath id="clip0_11_28">
<rect width="14" height="13" fill="white" transform="translate(44 173)"/>
</clipPath>
</defs>
</svg>
