<svg width="240" height="270" viewBox="0 0 240 270" fill="none" xmlns="http://www.w3.org/2000/svg">
<g filter="url(#filter0_d_10_96)">
<rect x="35" y="15" width="170" height="200" rx="10" fill="white"/>
</g>
<path d="M35 25C35 19.4771 39.4772 15 45 15H195C200.523 15 205 19.4772 205 25V47.1285H35V25Z" fill="#EFF5FF"/>
<ellipse cx="57.8846" cy="31.0642" rx="4.90385" ry="4.81928" fill="#9166F0"/>
<ellipse cx="75.8654" cy="31.0642" rx="4.90385" ry="4.81928" fill="#FF6D9E"/>
<ellipse cx="93.8462" cy="31.0642" rx="4.90385" ry="4.81928" fill="#78BEFF"/>
<rect x="84.5385" y="171.323" width="70.9231" height="19.0803" rx="4.5" fill="#A27DF2" stroke="#7F4FE8"/>
<path d="M77.9341 67.4659L80.0932 71.7503C80.1515 71.8932 80.2974 71.9788 80.4433 72.0074L85.2574 72.6929C85.6658 72.7501 85.8117 73.2356 85.5199 73.4927L82.048 76.806C81.9313 76.9203 81.8729 77.0631 81.9021 77.2345L82.7482 81.9188C82.8065 82.3187 82.3981 82.6043 82.048 82.4044L77.7299 80.1765C77.584 80.0908 77.4089 80.0908 77.2922 80.1765L72.9741 82.4044C72.624 82.5758 72.2155 82.2901 72.2739 81.9188L73.0908 77.2345C73.12 77.0917 73.0617 76.9203 72.945 76.806L69.473 73.4927C69.1812 73.2071 69.3563 72.7501 69.7356 72.6929L74.5497 72.0074C74.6955 71.9788 74.8414 71.8932 74.8998 71.7503L77.0588 67.4659C77.263 67.1231 77.759 67.1231 77.9341 67.4659Z" fill="#FFD48B"/>
<path d="M99.1841 67.4659L101.343 71.7503C101.402 71.8932 101.547 71.9788 101.693 72.0074L106.507 72.6929C106.916 72.7501 107.062 73.2356 106.77 73.4927L103.298 76.806C103.181 76.9203 103.123 77.0631 103.152 77.2345L103.998 81.9188C104.057 82.3187 103.648 82.6043 103.298 82.4044L98.9799 80.1765C98.834 80.0908 98.6589 80.0908 98.5422 80.1765L94.2241 82.4044C93.874 82.5758 93.4655 82.2901 93.5239 81.9188L94.3408 77.2345C94.37 77.0917 94.3117 76.9203 94.195 76.806L90.723 73.4927C90.4312 73.2071 90.6063 72.7501 90.9856 72.6929L95.7997 72.0074C95.9455 71.9788 96.0914 71.8932 96.1498 71.7503L98.3088 67.4659C98.513 67.1231 99.009 67.1231 99.1841 67.4659Z" fill="#FFD48B"/>
<path d="M120.434 67.4659L122.593 71.7503C122.652 71.8932 122.797 71.9788 122.943 72.0074L127.757 72.6929C128.166 72.7501 128.312 73.2356 128.02 73.4927L124.548 76.806C124.431 76.9203 124.373 77.0631 124.402 77.2345L125.248 81.9188C125.307 82.3187 124.898 82.6043 124.548 82.4044L120.23 80.1765C120.084 80.0908 119.909 80.0908 119.792 80.1765L115.474 82.4044C115.124 82.5758 114.716 82.2901 114.774 81.9188L115.591 77.2345C115.62 77.0917 115.562 76.9203 115.445 76.806L111.973 73.4927C111.681 73.2071 111.856 72.7501 112.236 72.6929L117.05 72.0074C117.196 71.9788 117.341 71.8932 117.4 71.7503L119.559 67.4659C119.763 67.1231 120.259 67.1231 120.434 67.4659Z" fill="#FFD48B"/>
<path d="M141.684 67.4659L143.843 71.7503C143.902 71.8932 144.047 71.9788 144.193 72.0074L149.007 72.6929C149.416 72.7501 149.562 73.2356 149.27 73.4927L145.798 76.806C145.681 76.9203 145.623 77.0631 145.652 77.2345L146.498 81.9188C146.557 82.3187 146.148 82.6043 145.798 82.4044L141.48 80.1765C141.334 80.0908 141.159 80.0908 141.042 80.1765L136.724 82.4044C136.374 82.5758 135.966 82.2901 136.024 81.9188L136.841 77.2345C136.87 77.0917 136.812 76.9203 136.695 76.806L133.223 73.4927C132.931 73.2071 133.106 72.7501 133.486 72.6929L138.3 72.0074C138.446 71.9788 138.591 71.8932 138.65 71.7503L140.809 67.4659C141.013 67.1231 141.509 67.1231 141.684 67.4659Z" fill="#FFD48B"/>
<path d="M162.934 67.4659L165.093 71.7503C165.152 71.8932 165.297 71.9788 165.443 72.0074L170.257 72.6929C170.666 72.7501 170.812 73.2356 170.52 73.4927L167.048 76.806C166.931 76.9203 166.873 77.0631 166.902 77.2345L167.748 81.9188C167.807 82.3187 167.398 82.6043 167.048 82.4044L162.73 80.1765C162.584 80.0908 162.409 80.0908 162.292 80.1765L157.974 82.4044C157.624 82.5758 157.216 82.2901 157.274 81.9188L158.091 77.2345C158.12 77.0917 158.062 76.9203 157.945 76.806L154.473 73.4927C154.181 73.2071 154.356 72.7501 154.736 72.6929L159.55 72.0074C159.696 71.9788 159.841 71.8932 159.9 71.7503L162.059 67.4659C162.263 67.1231 162.759 67.1231 162.934 67.4659Z" fill="#FFD48B"/>
<ellipse cx="120" cy="112.992" rx="18.7981" ry="18.4739" fill="#DCE3EE"/>
<rect x="96.2981" y="154.759" width="47.4038" height="4.81928" rx="2" fill="#DCE3EE"/>
<rect x="106.106" y="143.514" width="27.7885" height="4.81928" rx="2" fill="#DCE3EE"/>
<g clip-path="url(#clip0_10_96)">
<path d="M120.409 112.614C115.455 112.614 111.424 116.575 111.424 121.443C111.424 121.655 111.599 121.827 111.815 121.827H129.002C129.218 121.827 129.393 121.655 129.393 121.443C129.393 116.575 125.362 112.614 120.409 112.614Z" fill="white"/>
<path d="M120.409 111.799C122.782 111.799 124.705 109.908 124.705 107.576C124.705 105.244 122.782 103.353 120.409 103.353C118.036 103.353 116.112 105.244 116.112 107.576C116.112 109.908 118.036 111.799 120.409 111.799Z" fill="white"/>
</g>
<defs>
<filter id="filter0_d_10_96" x="0" y="0" width="240" height="270" filterUnits="userSpaceOnUse" color-interpolation-filters="sRGB">
<feFlood flood-opacity="0" result="BackgroundImageFix"/>
<feColorMatrix in="SourceAlpha" type="matrix" values="0 0 0 0 0 0 0 0 0 0 0 0 0 0 0 0 0 0 127 0" result="hardAlpha"/>
<feOffset dy="20"/>
<feGaussianBlur stdDeviation="17.5"/>
<feColorMatrix type="matrix" values="0 0 0 0 0.743472 0 0 0 0 0.800425 0 0 0 0 0.841667 0 0 0 0.25 0"/>
<feBlend mode="normal" in2="BackgroundImageFix" result="effect1_dropShadow_10_96"/>
<feBlend mode="normal" in="SourceGraphic" in2="effect1_dropShadow_10_96" result="shape"/>
</filter>
<clipPath id="clip0_10_96">
<rect width="18.7981" height="18.4739" fill="white" transform="translate(111.01 103.353)"/>
</clipPath>
</defs>
</svg>
