<svg width="24" height="24" viewBox="0 0 24 24" fill="none" xmlns="http://www.w3.org/2000/svg">
<g clip-path="url(#clip0_16_206)">
<path d="M18.8629 9.65702L22.6567 7.83038C23.1228 7.60593 23.6827 7.8019 23.9071 8.26802C24.1315 8.73415 23.9356 9.29399 23.4695 9.51839L19.6756 11.345C19.2199 11.5675 18.6504 11.3782 18.4252 10.9074C18.2008 10.4413 18.3968 9.88142 18.8629 9.65702ZM14.1105 9.8988C14.4763 10.2646 15.0694 10.2646 15.4353 9.8988L21.571 3.76313C21.9368 3.39734 21.9368 2.80419 21.571 2.43839C21.2051 2.07255 20.612 2.07255 20.2462 2.43839L14.1105 8.57406C13.7447 8.93985 13.7447 9.533 14.1105 9.8988ZM23.0882 21.8417C23.0883 21.8415 23.0886 21.8412 23.089 21.8408C23.0888 21.841 23.0885 21.8414 23.0882 21.8417ZM23.0882 21.8417L23.088 21.8418C23.0881 21.8418 23.0881 21.8418 23.0882 21.8417ZM22.9097 16.8948C20.4893 14.5497 18.0227 13.3507 15.4959 15.728C15.4941 15.7297 15.4923 15.7315 15.4905 15.7333L14.224 16.9903C13.4326 16.5441 11.8457 15.4892 10.1829 13.8264C8.51979 12.1633 7.46469 10.5761 7.01899 9.7854L8.27605 8.51888C8.27783 8.5171 8.27961 8.51528 8.28134 8.5135C10.6582 5.98476 9.46019 3.52202 7.11449 1.09974C6.4702 0.431655 5.60455 0.0452955 4.67699 0.011807C3.7492 -0.021541 2.85821 0.301401 2.16736 0.921478C-2.37752 5.85732 0.91878 13.5219 5.68104 18.3284C5.68399 18.3314 5.68703 18.3343 5.69003 18.3373C6.35268 18.999 7.10522 19.6539 7.92683 20.2839C8.33736 20.5987 8.92535 20.5211 9.24019 20.1105C9.55499 19.7 9.47738 19.1119 9.0668 18.7971C8.30631 18.214 7.61288 17.6105 7.00578 17.0035C7.00292 17.0006 7.00007 16.9978 6.99721 16.995C3.81772 13.8119 1.90957 9.90339 1.89281 6.53805C1.88405 4.79219 2.40928 3.33495 3.41178 2.32205L3.41895 2.31558C4.09986 1.70445 5.13075 1.7416 5.76586 2.40027C8.19113 4.91533 8.0155 6.10269 6.94386 7.20163L5.20742 8.95109C4.93511 9.22547 4.85928 9.63894 5.01656 9.9921C6.45174 13.1784 10.904 17.5958 14.0173 18.9928C14.3705 19.15 14.784 19.0742 15.0583 18.8019L16.8075 17.0658C17.9067 15.9939 19.094 15.8181 21.6093 18.2434C22.2679 18.8786 22.305 19.9095 21.6934 20.5909L21.6872 20.5978C20.6743 21.6002 19.2181 22.1263 17.4714 22.1165C16.0911 22.1096 14.4926 21.7312 12.849 21.0223C12.3741 20.8174 11.8228 21.0364 11.6179 21.5115C11.413 21.9865 11.632 22.5377 12.107 22.7426C14.0069 23.5621 15.8085 23.9817 17.4621 23.99C19.7158 24.0044 21.7162 23.2171 23.0881 21.8418C23.7081 21.1511 24.0311 20.2599 23.9976 19.3324C23.9641 18.4047 23.5778 17.5391 22.9097 16.8948ZM13.1019 5.58407C13.5577 5.8065 14.1272 5.61727 14.3523 5.14642L16.179 1.35261C16.4034 0.88649 16.2074 0.326646 15.7413 0.102249C15.275 -0.122241 14.7154 0.0737725 14.4909 0.539896L12.6643 4.3337C12.4399 4.79983 12.6358 5.35962 13.1019 5.58407Z" fill="#FE6C9D"/>
</g>
<defs>
<clipPath id="clip0_16_206">
<rect width="24" height="24" fill="white"/>
</clipPath>
</defs>
</svg>
