<svg width="119" height="55" viewBox="0 0 119 55" fill="none" xmlns="http://www.w3.org/2000/svg">
<path d="M23.2574 3.40341C22.2237 2.33439 20.9962 1.50536 19.5319 0.894486C18.0891 0.305434 16.4524 0 14.6866 0C12.5116 0 10.5089 0.370885 8.72151 1.09084C6.93414 1.81079 5.38365 2.83618 4.09157 4.167C2.7995 5.51964 1.78737 7.11226 1.07673 8.9885C0.366088 10.8647 0 12.9591 0 15.2717C0 16.7116 0.150742 17.9988 0.452226 19.0896C0.753711 20.2023 1.09826 21.1404 1.48589 21.904C1.87351 22.6894 2.26113 23.3003 2.67029 23.7802C3.05791 24.2384 3.3594 24.5657 3.55321 24.7402C3.89776 25.0238 4.24232 25.0456 4.58687 24.8493C4.90989 24.6529 5.21137 24.3475 5.46979 23.9548C5.7282 23.5621 5.92201 23.1476 6.07276 22.6894C6.2235 22.2313 6.30964 21.904 6.30964 21.6858C6.30964 21.4459 6.24503 21.2495 6.13736 21.0968C6.02969 20.9441 5.83588 20.9223 5.55593 21.0095C5.53439 20.9877 5.40518 20.8568 5.23291 20.6168C5.0391 20.3987 4.84528 20.0496 4.6084 19.5696C4.39306 19.0896 4.17771 18.4788 4.00543 17.737C3.83316 16.9952 3.72548 16.0571 3.72548 14.9663C3.72548 13.4609 3.94083 12.021 4.34999 10.6466C4.75915 9.29393 5.40518 8.09401 6.2881 7.06862C7.17102 6.04324 8.31235 5.2142 9.7121 4.60333C11.1119 3.99246 12.7915 3.68703 14.7512 3.68703C16.1725 3.68703 17.4 3.94883 18.4121 4.49425C19.4242 5.01785 20.2425 5.69417 20.8886 6.52321C21.5346 7.35224 21.9868 8.24673 22.2883 9.2503C22.5898 10.2539 22.719 11.2138 22.719 12.1519C22.719 13.5264 22.5467 14.7918 22.2022 15.9262C21.8576 17.0607 21.4054 18.0861 20.8455 18.9806C20.2856 19.8751 19.6611 20.6605 18.9504 21.3368C18.2398 22.0131 17.5076 22.5803 16.7754 23.0385C16.0217 23.4966 15.3111 23.8457 14.6005 24.1075C13.8898 24.3693 13.2653 24.522 12.7054 24.5875V8.44308C12.7054 7.83221 12.447 7.30861 11.9517 6.89409C11.4564 6.45776 10.7888 6.2614 9.99205 6.2614C9.6475 6.2614 9.34601 6.34867 9.0876 6.50139C8.82918 6.65411 8.69998 6.87227 8.69998 7.11226C8.69998 7.28679 8.74305 7.48314 8.80765 7.70131C8.87225 7.91948 8.91532 8.24673 8.91532 8.70488V34.5577C8.91532 34.7541 8.97993 34.9286 9.1522 35.1031C9.30294 35.2777 9.49676 35.4304 9.73364 35.5395C9.97052 35.6704 10.2289 35.7795 10.5089 35.8449C10.7888 35.9322 11.0903 35.9758 11.3703 35.9758C11.7364 35.9758 12.0594 35.8885 12.3178 35.714C12.5977 35.5395 12.7269 35.2559 12.7269 34.8413V28.3181C14.5143 27.9909 16.2586 27.3364 17.9168 26.4201C19.5749 25.482 21.0393 24.3038 22.3098 22.8858C23.5804 21.4677 24.5925 19.8532 25.3678 18.0206C26.1215 16.188 26.5091 14.2027 26.5091 12.0428C26.5091 10.2975 26.2291 8.66125 25.6692 7.19952C25.0663 5.7378 24.2695 4.47243 23.2574 3.40341Z" fill="#161828"/>
<path d="M118.16 16.3844C117.687 15.9481 117.062 15.7517 116.244 15.7517C115.899 15.7517 115.598 15.839 115.339 15.9917C115.081 16.1444 114.952 16.3408 114.952 16.5807C114.952 16.7553 114.973 16.9516 115.038 17.1698C115.102 17.388 115.124 17.7152 115.124 18.1734V29.2344C115.124 29.6926 115.081 30.1508 114.995 30.5653C114.909 31.0016 114.779 31.3725 114.586 31.6779C114.392 32.0052 114.155 32.2452 113.832 32.4415C113.53 32.616 113.143 32.7251 112.669 32.7251C112.195 32.7251 111.808 32.6379 111.506 32.4633C111.205 32.2888 110.968 32.0488 110.795 31.7434C110.623 31.4379 110.494 31.0671 110.429 30.6307C110.365 30.1944 110.322 29.7144 110.3 29.2126V17.9116C110.3 17.3225 110.063 16.7989 109.59 16.3844C109.116 15.9481 108.47 15.7517 107.651 15.7517C107.307 15.7517 107.005 15.839 106.747 15.9917C106.51 16.1444 106.381 16.3408 106.381 16.5807C106.381 16.7553 106.402 16.9516 106.467 17.1698C106.532 17.388 106.553 17.7152 106.553 18.1734V29.2344C106.553 29.6926 106.51 30.1508 106.424 30.5653C106.338 31.0016 106.209 31.3725 106.015 31.6779C105.821 32.0052 105.584 32.2452 105.261 32.4415C104.96 32.616 104.572 32.7251 104.098 32.7251C103.581 32.7251 103.151 32.616 102.828 32.4197C102.505 32.2233 102.268 31.9615 102.096 31.6343C101.923 31.307 101.816 30.9362 101.772 30.5216C101.708 30.0853 101.686 29.6708 101.686 29.2344V17.9116C101.686 17.3225 101.449 16.7989 100.976 16.3844C100.502 15.9481 99.8775 15.7517 99.0591 15.7517C98.7146 15.7517 98.4131 15.839 98.1547 15.9917C97.8963 16.1444 97.7671 16.3408 97.7671 16.5807C97.7671 16.7553 97.8101 16.9516 97.8747 17.1698C97.9393 17.388 97.9824 17.7152 97.9824 18.1734V26.3983C97.9824 26.4201 97.9609 26.4637 97.9609 26.4855C97.8747 26.9655 97.7455 27.4237 97.5733 27.86C97.401 28.2963 97.1641 28.6672 96.8841 28.9945C96.6042 29.3217 96.2596 29.5835 95.8505 29.758C95.4413 29.9544 94.9891 30.0417 94.4507 30.0417C94.2785 30.0417 94.1062 30.0417 93.9554 30.0199C93.8047 30.0199 93.6324 29.9762 93.4601 29.9108C93.697 29.0817 93.8693 28.2091 93.977 27.2928C94.0846 26.3983 94.1493 25.482 94.1493 24.5657C94.1493 23.3657 94.0416 22.2749 93.8262 21.2495C93.6109 20.2241 93.3094 19.3515 92.9218 18.6097C92.5342 17.8679 92.1035 17.3007 91.5866 16.8644C91.0698 16.4498 90.5314 16.2317 89.9715 16.2317C89.3255 16.2317 88.7441 16.3844 88.2488 16.7116C87.7535 17.0171 87.3443 17.4534 87.0213 17.977C86.6983 18.5006 86.4399 19.1333 86.2891 19.8314C86.1168 20.5296 86.0307 21.2713 86.0307 22.0349C86.0307 23.8239 86.3322 25.482 86.9352 27.031C87.5381 28.5581 88.3995 29.8453 89.5408 30.8271C89.2178 31.3943 88.8302 31.8525 88.378 32.2015C87.9258 32.5506 87.3443 32.7251 86.6552 32.7251C86.1814 32.7251 85.7292 32.5942 85.2985 32.3324C84.8678 32.0706 84.5018 31.6779 84.1787 31.1543C83.8557 30.6307 83.5973 29.9762 83.425 29.2126C83.2527 28.449 83.1451 27.5327 83.1451 26.4855C83.1451 25.2638 83.2312 24.2166 83.382 23.3439C83.5327 22.4713 83.7265 21.7295 83.9634 21.1404C84.2003 20.5296 84.4371 20.0278 84.6956 19.6351C84.954 19.2424 85.1909 18.8715 85.3847 18.5661C85.7077 18.3479 85.88 18.0643 85.9446 17.6716C86.0092 17.2789 85.9661 16.908 85.8584 16.5153C85.7292 16.1444 85.5569 15.8172 85.277 15.5335C85.0186 15.2499 84.7171 15.119 84.4156 15.119C84.1357 15.119 83.7265 15.3808 83.1881 15.9262C82.6498 16.4498 82.0899 17.2352 81.53 18.2388C80.9701 19.2424 80.4748 20.4641 80.0656 21.904C79.6349 23.3439 79.4411 24.9802 79.4411 26.791C79.4411 27.7509 79.5273 28.6672 79.6995 29.5399C79.5488 29.998 79.3765 30.4562 79.1827 30.8707C78.9243 31.3943 78.6013 31.8525 78.2567 32.2015C77.8906 32.5506 77.4815 32.7251 76.9862 32.7251C76.6632 32.7251 76.4263 32.6379 76.254 32.4415C76.0817 32.2452 75.9741 32.027 75.8879 31.7652C75.8018 31.5034 75.7587 31.2634 75.7372 31.0016C75.7156 30.7616 75.7156 30.5653 75.7156 30.4562V20.2241C75.7156 19.6569 75.651 19.0897 75.5434 18.4788C75.4141 17.8897 75.2203 17.3443 74.9189 16.8644C74.6174 16.3844 74.2082 15.9917 73.6699 15.6863C73.153 15.3808 72.4854 15.2281 71.6671 15.2281C71.0642 15.2281 70.5043 15.359 69.9874 15.599C69.4706 15.839 68.9968 16.188 68.5231 16.6462C68.0709 17.0825 67.6402 17.6061 67.2525 18.1952C66.8649 18.7842 66.4988 19.4387 66.1758 20.1369V17.9116C66.1758 17.3225 65.9389 16.7989 65.4652 16.3844C64.9914 15.9481 64.3669 15.7517 63.5486 15.7517C63.204 15.7517 62.9026 15.839 62.6441 15.9917C62.3857 16.1444 62.2565 16.3408 62.2565 16.5807C62.2565 16.7553 62.2996 16.9516 62.3642 17.1698C62.4288 17.388 62.4719 17.7152 62.4719 18.1734V26.8346C62.4073 27.0091 62.3427 27.1837 62.2781 27.4018C61.7828 29.1035 61.1583 30.5871 60.4261 31.8743C59.6724 33.1396 58.854 34.2741 57.9711 35.2777V17.9116C57.9711 17.3225 57.7342 16.7989 57.2605 16.3844C56.7867 15.9481 56.1622 15.7517 55.3439 15.7517C54.9994 15.7517 54.6979 15.839 54.4395 15.9917C54.2026 16.1444 54.0734 16.3408 54.0734 16.5807C54.0734 16.7553 54.0949 16.9516 54.1595 17.1698C54.2241 17.388 54.2456 17.7152 54.2456 18.1734V26.1365C54.0949 27.0091 53.9011 27.8382 53.6427 28.6454C53.3843 29.4526 53.0828 30.1508 52.7382 30.7616C52.3937 31.3725 52.006 31.8743 51.5969 32.2452C51.1662 32.616 50.714 32.7906 50.2187 32.7906C49.508 32.7906 48.9481 32.4415 48.5605 31.7434C48.1729 31.0452 47.9791 30.0199 47.9791 28.6672C47.9791 27.6418 48.0006 26.7037 48.0652 25.8747C48.1298 25.0456 48.216 24.2384 48.3452 23.4748C48.4744 22.7112 48.6036 21.9477 48.7759 21.1841C48.9481 20.4205 49.1419 19.5914 49.3788 18.6751C49.4219 18.4788 49.5296 18.2388 49.6803 17.9334C49.831 17.6279 49.9172 17.3225 49.9603 17.0389C50.0033 16.7553 49.9387 16.4935 49.7664 16.2753C49.5942 16.0571 49.2065 15.9481 48.6036 15.9481C47.9575 15.9481 47.4622 16.0135 47.1608 16.1226C46.8593 16.2317 46.6224 16.3844 46.4717 16.5589C46.3209 16.7335 46.2348 16.9298 46.1917 17.148C46.1486 17.3661 46.084 17.5843 46.0194 17.7807C45.6964 18.9369 45.3949 20.1369 45.1365 21.3804C44.9212 22.4494 44.7058 23.6275 44.5335 24.9584C44.3613 26.2892 44.2536 27.5982 44.2536 28.8854C44.2536 28.9726 44.2536 29.0599 44.2536 29.1254C44.0813 29.7362 43.866 30.3035 43.6076 30.8271C43.3491 31.3507 43.0261 31.8088 42.6816 32.1579C42.3155 32.507 41.9063 32.6815 41.411 32.6815C41.1311 32.6815 40.8727 32.616 40.6573 32.4851C40.442 32.3542 40.2697 32.1797 40.1405 31.9615C40.0113 31.7434 39.9251 31.5034 39.8605 31.2416C39.7959 30.9798 39.7744 30.6962 39.7744 30.4344V22.2749C39.7744 21.6859 39.5375 21.1623 39.0638 20.7477C38.59 20.3114 37.944 20.1151 37.1256 20.1151C36.7811 20.1151 36.4796 20.2023 36.2212 20.355C35.9843 20.5078 35.8551 20.7041 35.8551 20.9659C35.8551 21.0532 35.8551 21.1404 35.8766 21.2277C35.8982 21.315 35.9197 21.4241 35.9412 21.5331C35.9628 21.6422 35.9843 21.7731 36.0058 21.9477C36.0274 22.1004 36.0489 22.3185 36.0489 22.5585V30.1944C35.769 30.8925 35.4244 31.4816 34.9722 31.9834C34.52 32.4851 33.9816 32.7469 33.314 32.7469C32.4526 32.7469 31.7851 32.3979 31.2898 31.6997C30.7945 31.0016 30.5576 29.998 30.5576 28.689C30.5576 26.9001 30.7945 25.3511 31.2898 24.0639C31.7851 22.7767 32.4096 21.7077 33.1848 20.8568C33.9601 20.006 34.8214 19.3733 35.769 18.9806C36.7165 18.5661 37.664 18.3697 38.59 18.3697C38.8484 18.3697 39.0853 18.3915 39.3222 18.4133C39.559 18.4352 39.7959 18.457 40.0113 18.457C40.2482 18.457 40.4204 18.3697 40.5066 18.1952C40.5927 18.0206 40.6358 17.737 40.6358 17.3225C40.6358 16.668 40.4204 16.1662 40.0113 15.7953C39.6021 15.4245 39.0638 15.2499 38.3962 15.2499C36.9103 15.2499 35.4675 15.5554 34.0677 16.1662C32.668 16.7771 31.4405 17.6498 30.3638 18.806C29.287 19.9623 28.4257 21.3586 27.7581 22.9949C27.112 24.6311 26.789 26.4855 26.789 28.5581C26.789 29.6053 26.9182 30.5871 27.1551 31.4816C27.392 32.3979 27.7796 33.1833 28.2534 33.8378C28.7487 34.5141 29.3516 35.0377 30.0838 35.4086C30.816 35.8013 31.6343 35.9976 32.6034 35.9976C33.5294 35.9976 34.3261 35.8013 35.0152 35.4086C35.7044 35.0159 36.3073 34.5359 36.7811 33.9687C37.1472 34.5796 37.6425 35.0813 38.2885 35.4522C38.9345 35.8231 39.6667 35.9976 40.5281 35.9976C41.5833 35.9976 42.4878 35.7577 43.2845 35.2559C44.0382 34.7759 44.6843 34.1868 45.2226 33.4669C45.3519 33.6851 45.4595 33.9032 45.6103 34.0996C46.0625 34.7105 46.6009 35.1904 47.2469 35.5395C47.8929 35.8667 48.6251 36.0413 49.4219 36.0413C50.4771 36.0413 51.3815 35.714 52.1568 35.0813C52.932 34.4487 53.6211 33.6196 54.2026 32.6379V38.9211C53.3843 39.641 52.6305 40.361 51.8984 41.0591C51.1662 41.7573 50.5202 42.5208 49.9603 43.3062C49.4004 44.1135 48.9697 44.9861 48.6466 45.9679C48.3236 46.9278 48.1514 48.0405 48.1514 49.3059C48.1514 50.0913 48.259 50.833 48.4959 51.5312C48.7328 52.2293 49.0558 52.8183 49.465 53.3419C49.8957 53.8655 50.391 54.2583 50.9509 54.5637C51.5323 54.8691 52.1568 55 52.8244 55C53.4489 55 54.0518 54.8691 54.6548 54.6291C55.2578 54.3892 55.7961 53.9964 56.2699 53.4292C56.7437 52.8838 57.1313 52.142 57.4328 51.2475C57.7343 50.3531 57.8635 49.2622 57.8635 47.9532V39.4011C58.531 38.812 59.1986 38.1793 59.8662 37.503C60.5337 36.8267 61.1798 36.0413 61.8043 35.1686C61.9981 34.885 62.2134 34.5796 62.4073 34.2741C62.4503 34.5141 62.4934 34.7323 62.6011 34.9068C62.7518 35.1904 62.9456 35.4086 63.1825 35.5613C63.4194 35.714 63.6778 35.8231 63.9362 35.8667C64.2162 35.9322 64.4746 35.954 64.7115 35.954C65.056 35.954 65.336 35.8886 65.5082 35.7577C65.6805 35.6268 65.8313 35.4522 65.9174 35.2559C66.0035 35.0595 66.0466 34.8195 66.0681 34.5796C66.0681 34.3396 66.0897 34.0778 66.0897 33.8378V26.6164C66.1758 25.6347 66.4127 24.6529 66.8003 23.693C67.1664 22.7112 67.5971 21.8386 68.0924 21.075C68.5877 20.3114 69.083 19.6787 69.5998 19.1987C70.1166 18.7188 70.5473 18.4788 70.8919 18.4788C71.1288 18.4788 71.3226 18.5661 71.4518 18.7188C71.581 18.8715 71.6887 19.0678 71.7533 19.3296C71.8179 19.5914 71.8609 19.8751 71.8825 20.2241C71.904 20.5514 71.904 20.9223 71.904 21.315V31.3507C71.904 31.9834 71.9902 32.5724 72.184 33.1396C72.3562 33.7069 72.6362 34.1868 73.0023 34.6232C73.3684 35.0595 73.7991 35.365 74.2944 35.6268C74.7896 35.8667 75.3711 35.9976 76.0171 35.9976C77.0723 35.9976 77.9768 35.7577 78.752 35.2559C79.5273 34.7541 80.1948 34.1214 80.7763 33.3796C80.8409 33.2924 80.9055 33.1833 80.9701 33.096C81.0131 33.1615 81.0562 33.2269 81.0993 33.2705C81.6807 34.1214 82.4344 34.7759 83.3173 35.2777C84.2003 35.7795 85.277 36.0195 86.5045 36.0195C87.9042 36.0195 89.0886 35.6922 90.0361 35.0377C90.9837 34.3832 91.7589 33.5323 92.3619 32.4633C92.728 32.5942 93.0941 32.6815 93.5032 32.7251C93.8908 32.7688 94.3 32.7906 94.7522 32.7906C95.5705 32.7906 96.3242 32.6597 96.9918 32.3979C97.401 32.2452 97.7886 32.027 98.1332 31.787C98.1547 31.8961 98.1978 32.0052 98.2193 32.1361C98.37 32.6379 98.5638 33.1178 98.8223 33.576C99.0807 34.0341 99.4468 34.4487 99.8775 34.8195C100.33 35.1904 100.868 35.474 101.514 35.6704C102.16 35.8886 102.935 35.9758 103.84 35.9758C104.292 35.9758 104.766 35.9104 105.218 35.7795C105.67 35.6486 106.101 35.474 106.51 35.2559C106.898 35.0377 107.264 34.7977 107.565 34.5141C107.867 34.2305 108.104 33.925 108.276 33.5978C108.448 33.925 108.685 34.2305 108.965 34.5141C109.245 34.7977 109.59 35.0377 109.956 35.2559C110.343 35.474 110.752 35.6486 111.226 35.7795C111.678 35.9104 112.174 35.9758 112.712 35.9758C113.961 35.9758 114.995 35.7577 115.77 35.3431C116.545 34.9286 117.148 34.3832 117.579 33.7287C118.01 33.0742 118.29 32.3542 118.44 31.547C118.591 30.7398 118.677 29.9762 118.677 29.1908V17.9116C118.871 17.3225 118.634 16.8207 118.16 16.3844ZM54.3964 47.975C54.3964 48.215 54.3964 48.5641 54.3964 48.9786C54.3964 49.3931 54.3533 49.8513 54.2887 50.2658C54.2241 50.7021 54.0949 51.073 53.9011 51.3784C53.7073 51.7057 53.4273 51.8584 53.0397 51.8584C52.6521 51.8584 52.3291 51.5966 52.0922 51.073C51.8553 50.5494 51.7476 49.8949 51.7476 49.1313C51.7476 47.6478 51.9845 46.4042 52.4798 45.3788C52.9751 44.3753 53.5996 43.459 54.3964 42.6517V47.975ZM90.596 27.6418C90.0361 26.9001 89.5839 26.0274 89.2394 25.0238C88.8948 24.0202 88.7225 22.973 88.7225 21.8604C88.7225 20.2896 89.0025 19.526 89.5624 19.526C89.8208 19.526 90.0146 19.6787 90.1654 19.9623C90.3161 20.2678 90.4453 20.6605 90.5314 21.1841C90.6176 21.7077 90.6822 22.3185 90.7037 23.0385C90.7253 23.7584 90.7468 24.522 90.7468 25.3729C90.7468 26.0928 90.6822 26.8564 90.596 27.6418Z" fill="#161828"/>
</svg>
