<svg width="70" height="70" viewBox="0 0 70 70" fill="none" xmlns="http://www.w3.org/2000/svg">
<path d="M69.7806 20.883L63.7041 6.64439C61.9816 2.60805 58.0329 0 53.6443 0H16.3557C11.9671 0 8.01855 2.60805 6.2959 6.64439L0.219434 20.883C0.0746484 21.2223 0 21.5873 0 21.9562V25.5109C0 29.2488 2.25162 32.4689 5.46875 33.8915V59.0625C5.46875 65.0934 10.3753 70 16.4062 70H53.5938C59.6247 70 64.5312 65.0934 64.5312 59.0625C64.5312 57.5523 63.3071 56.3281 61.7969 56.3281C60.2867 56.3281 59.0625 57.5523 59.0625 59.0625C59.0625 62.078 56.6092 64.5312 53.5938 64.5312H16.4062C13.3908 64.5312 10.9375 62.078 10.9375 59.0625V34.4966C12.7287 34.1429 14.3335 33.2659 15.5859 32.0313C15.8446 32.2863 16.119 32.5251 16.4062 32.7481V50.4492C16.4062 51.9594 17.6304 53.1836 19.1406 53.1836H50.8594C52.3696 53.1836 53.5938 51.9594 53.5938 50.4492V32.7481C53.881 32.5251 54.1554 32.2863 54.4141 32.0313C55.6665 33.2659 57.2713 34.1429 59.0625 34.4966V45.3906C59.0625 46.9008 60.2867 48.125 61.7969 48.125C63.3071 48.125 64.5312 46.9008 64.5312 45.3906V33.8916C67.7484 32.4689 70 29.2489 70 25.511V21.9563C70 21.5873 69.9253 21.2223 69.7806 20.883ZM12.8516 25.5109C12.8516 27.5464 11.1956 29.2023 9.16016 29.2023C7.12469 29.2023 5.46875 27.5464 5.46875 25.5109V24.6094H12.8516V25.5109ZM18.3203 25.5109V24.6094H25.7031V25.5109C25.7031 27.5464 24.0472 29.2023 22.0117 29.2023C19.9762 29.2023 18.3203 27.5464 18.3203 25.5109ZM48.125 47.7148H21.875V34.6676C21.9207 34.6683 21.9659 34.6711 22.0117 34.6711C24.5335 34.6711 26.8205 33.6465 28.4785 31.9921C30.158 33.6472 32.4613 34.6711 35 34.6711C37.5387 34.6711 39.842 33.6472 41.5215 31.9921C43.1796 33.6465 45.4665 34.6711 47.9883 34.6711C48.0341 34.6711 48.0793 34.6682 48.125 34.6676V47.7148ZM31.1719 25.3742V24.6094H38.8281V25.3742C38.8281 27.485 37.1108 29.2023 35 29.2023C32.8892 29.2023 31.1719 27.485 31.1719 25.3742ZM51.6797 25.5109C51.6797 27.5464 50.0238 29.2023 47.9883 29.2023C45.9528 29.2023 44.2969 27.5464 44.2969 25.5109V24.6094H51.6797V25.5109ZM6.90895 19.1406L11.3258 8.79088C12.1871 6.77277 14.1615 5.46875 16.3557 5.46875H53.6443C55.8385 5.46875 57.8129 6.77277 58.6742 8.79088L63.0911 19.1406H6.90895ZM64.5312 25.5109C64.5312 27.5464 62.8753 29.2023 60.8398 29.2023C58.8044 29.2023 57.1484 27.5464 57.1484 25.5109V24.6094H64.5312V25.5109Z" fill="#30BF67"/>
</svg>
