<svg width="70" height="70" viewBox="0 0 70 70" fill="none" xmlns="http://www.w3.org/2000/svg">
<path d="M55.371 35.1374C50.8478 35.1374 47.1679 38.8173 47.1679 43.3405C47.1679 47.8637 50.8478 51.5436 55.371 51.5436H66.9921C67.0384 51.5436 67.0837 51.5389 67.1295 51.5366C67.1749 51.5388 67.2196 51.5435 67.2655 51.5435C68.7757 51.5435 69.9999 50.3193 69.9999 48.8091V27.3443C69.9999 23.704 68.2106 20.4754 65.467 18.4863L56.1646 3.22578C55.7854 2.60343 55.1733 2.15828 54.4643 1.98929C53.7552 1.82004 53.0082 1.94103 52.3887 2.32521L45.5286 6.57934L42.435 1.34385C42.0629 0.714394 41.4545 0.260216 40.7454 0.0824815C40.0364 -0.0952526 39.2854 0.0186339 38.6607 0.398164L12.3196 16.4068H8.20311C6.71821 16.4068 5.50593 15.2171 5.46956 13.7408C5.50593 12.2645 6.71821 11.0748 8.20311 11.0748H13.2617C14.7719 11.0748 15.9961 9.85061 15.9961 8.34042C15.9961 6.83022 14.7719 5.60605 13.2617 5.60605H8.20311C4.33425 5.60605 1.08267 8.29858 0.222851 11.9081C0.0798436 12.2398 0 12.6048 0 12.9888V13.6724V13.8092V59.063C0 65.0939 4.90655 70.0005 10.9375 70.0005H59.0624C63.7778 70.0005 67.9481 66.9966 69.4395 62.5259C69.9174 61.0934 69.1435 59.5446 67.7109 59.0668C66.2785 58.589 64.7296 59.3628 64.2518 60.7953C63.5063 63.0301 61.4209 64.5317 59.0624 64.5317H10.9375C7.92202 64.5317 5.46874 62.0784 5.46874 59.063V21.4065C6.32446 21.71 7.24471 21.8755 8.20311 21.8755H59.0624C62.0778 21.8755 64.5311 24.3288 64.5311 27.3443V35.1374H55.371ZM64.5311 46.0747H55.371C53.8633 46.0749 52.6366 44.8482 52.6366 43.3404C52.6366 41.8326 53.8633 40.606 55.371 40.606H64.5311V46.0747ZM22.8495 16.4069L39.1353 6.50948L42.047 11.437C42.1029 11.5716 42.1671 11.7044 42.2464 11.8323C42.3059 11.9282 42.3718 12.0175 42.4406 12.1033L44.9835 16.4069H22.8495ZM51.3357 16.4068L48.3114 11.2886L52.9292 8.42504L57.7947 16.4068H51.3357Z" fill="#FF9C43"/>
</svg>
