<svg width="70" height="70" viewBox="0 0 70 70" fill="none" xmlns="http://www.w3.org/2000/svg">
<path d="M70 34.7254V46.893C69.8557 50.5209 64.6746 50.5182 64.5314 46.893V41.4914L55.8293 50.1936C55.3167 50.7064 54.6211 50.9945 53.8959 50.9945H40.0982L21.8956 69.1971C20.8278 70.265 19.0965 70.265 18.0287 69.1971C16.9608 68.1292 16.9608 66.398 18.0287 65.3302L37.0322 46.3268C37.5449 45.8139 38.2405 45.5259 38.9656 45.5259H52.7632L60.8294 37.4597H54.9613C51.3335 37.3153 51.3362 32.1342 54.9613 31.991H67.2657C68.7759 31.991 70 33.2152 70 34.7254ZM67.2657 55.096C65.7556 55.096 64.5314 56.3201 64.5314 57.8303V67.2637C64.6758 70.8915 69.8569 70.8888 70 67.2637V57.8303C70 56.3201 68.7759 55.096 67.2657 55.096ZM56.3285 55.096C54.8183 55.096 53.5942 56.3201 53.5942 57.8303V67.2637C53.7386 70.8915 58.9197 70.8888 59.0628 67.2637V57.8303C59.0628 56.3201 57.8386 55.096 56.3285 55.096ZM45.3913 55.096C43.8811 55.096 42.6569 56.3201 42.6569 57.8303V67.2637C42.8013 70.8915 47.9824 70.8888 48.1256 67.2637V57.8303C48.1256 56.3201 46.9014 55.096 45.3913 55.096ZM34.454 63.4356C32.9438 63.4356 31.7197 64.6598 31.7197 66.1699V67.2637C31.8641 70.8915 37.0452 70.8888 37.1883 67.2637V66.1699C37.1883 64.6598 35.9642 63.4356 34.454 63.4356ZM28.8487 46.3462C30.3588 46.3462 31.583 45.122 31.583 43.6119V41.9325C40.1545 38.7596 38.0846 26.1504 28.8485 25.9756C25.213 25.8272 25.2306 20.6766 28.8487 20.5265C29.9465 20.5265 30.823 21.1081 31.2535 22.1224C31.8436 23.5124 33.4489 24.1607 34.839 23.5707C36.229 22.9807 36.8774 21.3754 36.2874 19.9852C35.3721 17.8291 33.6714 16.2523 31.583 15.5181V13.671C31.4386 10.0431 26.2575 10.0459 26.1144 13.671V15.5263C17.5551 18.699 19.5964 31.2686 28.8488 31.444C32.464 31.5937 32.4869 36.7817 28.8487 36.9322C27.7853 36.9322 26.7307 36.2384 26.2842 35.2449C25.6651 33.8675 24.0465 33.2528 22.6693 33.8718C21.2919 34.4909 20.677 36.1093 21.2962 37.4867C22.2295 39.563 24.018 41.1581 26.1144 41.9156V43.6117C26.1144 45.122 27.3385 46.3462 28.8487 46.3462ZM19.4148 55.7078C20.5142 55.7078 21.5512 55.0396 21.9683 53.9515C22.509 52.5416 21.8041 50.9602 20.394 50.4196C-3.41264 40.8065 2.98113 5.89628 28.7124 5.46823C40.0283 5.46823 49.6558 13.5437 51.6043 24.6699C51.8647 26.1573 53.2818 27.152 54.7693 26.8916C56.2567 26.6311 57.2515 25.2141 56.9909 23.7266C55.84 17.1547 52.3897 11.146 47.2755 6.80763C28.8429 -8.94692 -0.080746 4.43425 0.00183013 28.7101C-0.135979 40.3809 7.52241 51.4715 18.4364 55.5258C18.7585 55.6493 19.0892 55.7078 19.4148 55.7078Z" fill="#8F5CFF"/>
</svg>
