<svg width="70" height="70" viewBox="0 0 70 70" fill="none" xmlns="http://www.w3.org/2000/svg">
<path d="M45.0001 42.4995C43.6193 42.4995 42.5 43.6188 42.5 44.9996C42.5 49.1417 39.1422 52.4996 35 52.4996C30.8579 52.4996 27.5 49.1417 27.5 44.9996C27.5 43.6188 26.3807 42.4995 25 42.4995C23.6192 42.4995 22.4999 43.6188 22.4999 44.9996C22.4999 51.9031 28.0964 57.4996 34.9999 57.4996C41.9034 57.4996 47.4999 51.9031 47.4999 44.9996C47.5002 43.6188 46.3809 42.4995 45.0001 42.4995Z" fill="#FB6094"/>
<path d="M46.7676 10.7319L36.7675 0.732021C35.7912 -0.244007 34.2087 -0.244007 33.2326 0.732021L23.2325 10.7321C22.2733 11.7253 22.3008 13.3079 23.294 14.2671C24.2629 15.2028 25.7987 15.2028 26.7676 14.2671L32.5001 8.53453V42.4996C32.5001 43.8804 33.6194 44.9997 35.0002 44.9997C36.381 44.9997 37.5001 43.8803 37.5001 42.4996V8.53453L43.2326 14.2671C43.7014 14.736 44.3371 14.9995 45.0001 14.9996C46.3809 14.9993 47.4999 13.8798 47.4996 12.4991C47.4994 11.8363 47.2362 11.2007 46.7676 10.7319Z" fill="#FB6094"/>
<path d="M67.5001 19.9997H45.0001C43.6193 19.9997 42.5 21.1189 42.5 22.4997C42.5 23.8805 43.6193 24.9998 45.0001 24.9998H52.7251C53.7986 31.281 58.7188 36.2013 65.0001 37.2747V52.7248C58.7188 53.7982 53.7986 58.7185 52.7251 64.9998H17.2751C16.2016 58.7185 11.2814 53.7982 5.00011 52.7248V37.2746C11.2814 36.201 16.2016 31.2809 17.2751 24.9996H25.0001C26.3809 24.9996 27.5002 23.8803 27.5002 22.4996C27.5002 21.1188 26.3809 19.9995 25.0001 19.9995H2.50005C1.11929 19.9997 0 21.1189 0 22.4996V67.4997C0 68.8804 1.11929 69.9997 2.50005 69.9997H67.5001C68.8809 69.9997 70.0002 68.8804 70.0002 67.4997V22.4996C70.0002 21.1189 68.8809 19.9997 67.5001 19.9997ZM4.99996 24.9996H12.145C11.2302 28.498 8.49831 31.2299 4.99996 32.1447V24.9996ZM4.99996 64.9998V57.8547C8.49831 58.7695 11.2302 61.5014 12.145 64.9998H4.99996ZM65.0001 64.9998H57.855C58.7698 61.5014 61.5017 58.7695 65.0001 57.8547V64.9998ZM65.0001 32.1446C61.5017 31.2298 58.7698 28.4978 57.855 24.9995H65.0001V32.1446Z" fill="#FB6094"/>
</svg>
