<svg width="24" height="26" viewBox="0 0 24 26" fill="none" xmlns="http://www.w3.org/2000/svg">
<path d="M4.00228 0.40635C3.4091 0.0271833 2.69319 -0.0879209 2.01819 0.0678082L13.8273 11.7949L17.6523 7.99645L4.00228 0.40635Z" fill="#9166F0"/>
<path d="M0.55227 1.02246C0.224997 1.45579 0.0340881 1.99069 0.0340881 2.55267V23.4407C0.0340881 24.0027 0.224997 24.5376 0.55227 24.9709L12.6136 13.0001L0.55227 1.02246Z" fill="#9166F0"/>
<path d="M22.65 10.7724L19.2136 8.86304L15.0409 13L19.2136 17.1438L22.6568 15.2344C23.4818 14.774 23.9727 13.9412 23.9727 13.0068C23.9659 12.0589 23.475 11.2261 22.65 10.7724Z" fill="#9166F0"/>
<path d="M13.8273 14.2053L2.01819 25.9324C2.2091 25.9798 2.40682 26.0001 2.60455 26.0001C3.08864 26.0001 3.57955 25.8647 4.00228 25.5871L17.6523 18.0038L13.8273 14.2053Z" fill="#9166F0"/>
</svg>
