<svg width="60" height="60" viewBox="0 0 60 60" fill="none" xmlns="http://www.w3.org/2000/svg">
<circle cx="30" cy="30" r="30" fill="#FE6C9D"/>
<g clip-path="url(#clip0_11_59)">
<path d="M39.168 35.3594H36.3848C35.8463 35.3594 35.4082 35.7975 35.4082 36.3359V39.0703C35.4082 39.6097 34.971 40.0469 34.4316 40.0469C33.8923 40.0469 33.4551 39.6097 33.4551 39.0703V36.3359C33.4551 34.7205 34.7693 33.4062 36.3848 33.4062H39.168C39.7073 33.4062 40.1445 33.8435 40.1445 34.3828C40.1445 34.9222 39.7073 35.3594 39.168 35.3594ZM38.4913 37.1102C38.1099 36.7288 37.4916 36.7288 37.1103 37.1102C36.7289 37.4916 36.7289 38.11 37.1103 38.4913L40.3329 41.714C40.5236 41.9047 40.7735 42 41.0234 42C41.2734 42 41.5233 41.9047 41.714 41.714C42.0954 41.3326 42.0954 40.7143 41.714 40.3329L38.4913 37.1102ZM33.6719 32.6739C34.1796 32.6739 34.6083 32.281 34.645 31.7666C34.6752 31.342 34.6959 30.9105 34.7089 30.4766H37.1172C37.6565 30.4766 38.0938 30.0394 38.0938 29.5C38.0938 28.9606 37.6565 28.5234 37.1172 28.5234H34.7027C34.608 26.3611 34.199 24.147 33.4592 21.7861C33.2979 21.2715 32.7501 20.985 32.2354 21.1463C31.7207 21.3076 31.4342 21.8555 31.5955 22.3702C32.2739 24.5354 32.6525 26.5584 32.747 28.5235H26.2555C26.3885 26.0539 26.9928 23.8644 27.461 22.3702C27.6223 21.8555 27.3358 21.3075 26.8211 21.1463C26.3065 20.9848 25.7585 21.2714 25.5972 21.7861C25.0895 23.4064 24.4326 25.7945 24.2998 28.5234H21.8828C21.3435 28.5234 20.9062 28.9606 20.9062 29.5C20.9062 30.0394 21.3435 30.4766 21.8828 30.4766H24.2997C24.4316 33.2058 25.0845 35.593 25.5891 37.2124C25.7194 37.6306 26.105 37.8987 26.5212 37.8987C26.6174 37.8987 26.7153 37.8844 26.812 37.8542C27.327 37.6938 27.6143 37.1463 27.4539 36.6313C26.9883 35.1374 26.3875 32.9479 26.2553 30.4766H32.7552C32.7428 30.864 32.7238 31.249 32.6968 31.6279C32.6585 32.1659 33.0636 32.6331 33.6015 32.6713C33.6251 32.673 33.6486 32.6739 33.6719 32.6739ZM30.8419 39.9624C30.3999 40.0185 29.9483 40.0469 29.5 40.0469C23.6844 40.0469 18.9531 35.3156 18.9531 29.5C18.9531 23.6844 23.6844 18.9531 29.5 18.9531C35.3156 18.9531 40.0469 23.6844 40.0469 29.5C40.0469 29.9314 40.0201 30.3685 39.9672 30.7991C39.9016 31.3344 40.2823 31.8216 40.8176 31.8873C41.3529 31.9531 41.8401 31.5723 41.9058 31.037C41.9683 30.5277 42 30.0106 42 29.5C42 26.1611 40.6998 23.022 38.3389 20.6611C35.9779 18.3002 32.8389 17 29.5 17C26.1611 17 23.0221 18.3002 20.6611 20.6611C18.3002 23.0221 17 26.1611 17 29.5C17 32.8389 18.3002 35.9779 20.6611 38.3389C23.0221 40.6998 26.1611 42 29.5 42C30.0302 42 30.5644 41.9664 31.0877 41.9C31.6228 41.8321 32.0015 41.3434 31.9336 40.8083C31.8658 40.2732 31.3769 39.8945 30.8419 39.9624Z" fill="white"/>
</g>
<defs>
<clipPath id="clip0_11_59">
<rect width="25" height="25" fill="white" transform="translate(17 17)"/>
</clipPath>
</defs>
</svg>
