<svg width="60" height="60" viewBox="0 0 60 60" fill="none" xmlns="http://www.w3.org/2000/svg">
<circle cx="30" cy="30" r="30" fill="#FE6C9D"/>
<g clip-path="url(#clip0_11_65)">
<path d="M28.5279 24.5659C29.9807 25.1232 31.8917 25.4301 33.909 25.4301C35.9262 25.4301 37.8372 25.1232 39.29 24.5659C41.6479 23.6615 42 22.3982 42 21.7257C42 21.0533 41.6479 19.7899 39.29 18.8855C37.8372 18.3282 35.9262 18.0214 33.909 18.0214C31.8917 18.0214 29.9807 18.3282 28.5279 18.8855C26.17 19.7899 25.8179 21.0532 25.8179 21.7257C25.8179 22.3982 26.17 23.6615 28.5279 24.5659ZM29.2261 20.7058C30.4437 20.2388 32.1505 19.971 33.909 19.971C35.6674 19.971 37.3743 20.2388 38.5918 20.7058C39.6938 21.1285 40.0504 21.5755 40.0504 21.7257C40.0504 21.8759 39.6939 22.3229 38.5918 22.7456C37.3743 23.2125 35.6674 23.4804 33.909 23.4804C32.1505 23.4804 30.4436 23.2125 29.2261 22.7456C28.1241 22.3229 27.7676 21.8759 27.7676 21.7257C27.7676 21.5755 28.1241 21.1285 29.2261 20.7058ZM41.8708 40.2886C42.0903 40.7802 41.8697 41.3567 41.3781 41.5762C39.3478 42.4826 36.6929 42.9769 33.8723 42.9769C33.7682 42.9769 33.6639 42.9762 33.5594 42.9749C33.0211 42.9679 32.5903 42.5259 32.5973 41.9876C32.6043 41.4492 33.0477 41.0186 33.5846 41.0254C36.2069 41.0589 38.7573 40.6112 40.5833 39.7959C41.0748 39.5763 41.6513 39.797 41.8708 40.2886ZM41.8708 35.9507C42.0903 36.4423 41.8697 37.0187 41.3781 37.2382C39.8995 37.8984 38.0559 38.3475 36.0466 38.5371C36.0155 38.54 35.9845 38.5415 35.9539 38.5415C35.4568 38.5415 35.0322 38.163 34.9845 37.6582C34.9339 37.1222 35.3275 36.6466 35.8635 36.5961C37.664 36.4262 39.2961 36.0326 40.5833 35.4579C41.0748 35.2383 41.6513 35.459 41.8708 35.9507ZM41.8708 31.564C42.0903 32.0556 41.8697 32.632 41.3781 32.8515C39.9799 33.4758 38.244 33.914 36.358 34.1188C36.3223 34.1227 36.2867 34.1246 36.2516 34.1246C35.7603 34.1246 35.3379 33.7544 35.2836 33.2549C35.2255 32.7197 35.6123 32.2386 36.1475 32.1805C37.8342 31.9973 39.3681 31.6137 40.5832 31.0712C41.0748 30.8516 41.6513 31.0723 41.8708 31.564ZM41.3781 28.4161C39.5955 29.2119 37.252 29.703 34.7791 29.799C34.7663 29.7995 34.7534 29.7998 34.7406 29.7998C34.2197 29.7998 33.7876 29.3879 33.7672 28.8627C33.7463 28.3248 34.1655 27.8717 34.7035 27.8508C36.934 27.7643 39.0222 27.3327 40.5832 26.6357C41.0748 26.4162 41.6513 26.6369 41.8708 27.1285C42.0903 27.6201 41.8697 28.1966 41.3781 28.4161ZM25.286 26.4049C20.7171 26.4049 17 30.122 17 34.6909C17 39.2598 20.7171 42.9769 25.286 42.9769C29.8549 42.9769 33.572 39.2598 33.572 34.6909C33.572 30.122 29.8549 26.4049 25.286 26.4049ZM25.286 41.0272C21.7921 41.0272 18.9496 38.1848 18.9496 34.6909C18.9496 31.1969 21.7921 28.3545 25.286 28.3545C28.7799 28.3545 31.6224 31.1969 31.6224 34.6909C31.6224 38.1848 28.7799 41.0272 25.286 41.0272ZM28.0155 36.1531C28.0155 37.2001 27.3451 38.0948 26.4071 38.4391V38.5902C26.4071 39.1285 25.9706 39.565 25.4322 39.565C24.8938 39.565 24.4574 39.1285 24.4574 38.5902V38.4631C24.0601 38.3825 23.6174 38.2599 23.1713 38.0826C22.6709 37.8837 22.4266 37.3169 22.6254 36.8166C22.8243 36.3163 23.391 36.072 23.8914 36.2708C24.6545 36.5741 25.3503 36.6405 25.5541 36.6405C25.8315 36.6405 26.0659 36.4173 26.0659 36.1531C26.0659 35.8889 25.7534 35.6657 25.3835 35.6657C23.7996 35.6657 22.6052 34.618 22.6052 33.2286C22.6052 32.0864 23.3952 31.1257 24.4574 30.863V30.7916C24.4574 30.2532 24.8938 29.8167 25.4322 29.8167C25.9706 29.8167 26.4071 30.2532 26.4071 30.7916V30.9709C26.6575 31.037 26.9354 31.1263 27.2478 31.2478C27.7495 31.4429 27.9982 32.0078 27.803 32.5096C27.6079 33.0114 27.0429 33.26 26.5411 33.0648C25.8097 32.7804 25.3886 32.7412 25.0423 32.7412C24.7735 32.7412 24.5549 32.9599 24.5549 33.2286C24.5549 33.5065 24.9111 33.716 25.3835 33.716C26.0687 33.716 26.7159 33.9553 27.206 34.3896C27.7204 34.8457 28.0155 35.4884 28.0155 36.1531Z" fill="white"/>
</g>
<defs>
<clipPath id="clip0_11_65">
<rect width="25" height="25" fill="white" transform="translate(17 18)"/>
</clipPath>
</defs>
</svg>
