<svg width="60" height="60" viewBox="0 0 60 60" fill="none" xmlns="http://www.w3.org/2000/svg">
<circle cx="30" cy="30" r="30" fill="#FE6C9D"/>
<g clip-path="url(#clip0_11_53)">
<path d="M42.0234 26.4236C42.5628 26.4236 43 25.9864 43 25.447V21.7849C43 21.3634 42.7296 20.9895 42.3293 20.8575L30.7814 17.0489C30.5824 16.9833 30.3675 16.9834 30.1686 17.0493L18.6695 20.8579C18.2698 20.9903 18 21.3639 18 21.7849V25.447C18 25.9864 18.4372 26.4236 18.9766 26.4236H19.709V36.1404H18.9766C18.4372 36.1404 18 36.5776 18 37.1169V41.0232C18 41.5626 18.4372 41.9998 18.9766 41.9998H34.5527C35.8484 41.9482 35.8475 40.0978 34.5527 40.0466H19.9531V38.0935H32.4043C32.9437 38.0935 33.3809 37.6563 33.3809 37.1169V26.4236H38.3613V28.2767C34.4941 29.5032 35.2614 35.1135 39.3624 35.2127C41.4668 35.2993 41.4676 38.2994 39.3623 38.3865C38.7383 38.3865 38.1696 38.0185 37.9137 37.449C37.6925 36.9571 37.1145 36.7375 36.6226 36.9586C36.1307 37.1797 35.9111 37.7578 36.1322 38.2497C36.5618 39.2053 37.3863 39.9064 38.3613 40.1947V41.0232C38.4129 42.3189 40.2633 42.3179 40.3145 41.0232V40.2095C44.2267 39.0269 43.4918 33.3621 39.3623 33.2595C37.2579 33.1729 37.2569 30.1728 39.3623 30.0857C40.0007 30.0857 40.5745 30.4655 40.8241 31.0532C41.0348 31.5497 41.6082 31.7812 42.1046 31.5706C42.601 31.3598 42.8327 30.7864 42.6219 30.29C42.1934 29.2808 41.3362 28.5465 40.3145 28.2622V26.4236H42.0234ZM19.9531 22.4902L30.4762 19.0048L41.0469 22.4912V24.4705H19.9531V22.4902ZM27.5215 26.4236V36.1404H25.5684V26.4236H27.5215ZM21.6621 26.4236H23.6152V36.1404H21.6621V26.4236ZM31.4277 36.1404H29.4746V26.4236H31.4277V36.1404ZM31.4277 22.0779C31.4277 22.6172 30.9905 23.0544 30.4512 23.0544C29.1558 23.003 29.1562 21.1525 30.4512 21.1013C30.9905 21.1013 31.4277 21.5385 31.4277 22.0779Z" fill="white"/>
</g>
<defs>
<clipPath id="clip0_11_53">
<rect width="25" height="25" fill="white" transform="translate(18 17)"/>
</clipPath>
</defs>
</svg>
