<svg width="20" height="20" viewBox="0 0 20 20" fill="none" xmlns="http://www.w3.org/2000/svg">
<g clip-path="url(#clip0_17_42)">
<path d="M10.0003 20.0006C15.5231 20.0006 20.0001 15.5235 20.0001 10.0008C20.0001 4.47805 15.5231 0.000976562 10.0003 0.000976562C4.47756 0.000976562 0.000488281 4.47805 0.000488281 10.0008C0.000488281 15.5235 4.47756 20.0006 10.0003 20.0006Z" fill="#CB2027"/>
<path d="M10.8072 13.391C10.0512 13.3325 9.73356 12.9576 9.14068 12.5977C8.81483 14.3074 8.4166 15.9463 7.23708 16.8024C6.87255 14.2184 7.77149 12.2776 8.18897 10.2175C7.47737 9.01957 8.27453 6.60848 9.77545 7.2026C11.6227 7.9331 8.17614 11.6567 10.4899 12.1218C12.9055 12.6073 13.8916 7.93042 12.3935 6.40919C10.2291 4.21289 6.09339 6.35927 6.60196 9.50336C6.72584 10.272 7.52015 10.5053 6.91925 11.566C5.53402 11.2592 5.12082 10.1666 5.17394 8.71012C5.25968 6.32594 7.31623 4.65657 9.37901 4.42555C11.9878 4.13357 14.4363 5.3835 14.7743 7.83737C15.1545 10.6069 13.5966 13.6063 10.8072 13.391Z" fill="#F1F2F2"/>
</g>
<defs>
<clipPath id="clip0_17_42">
<rect width="20" height="20" fill="white"/>
</clipPath>
</defs>
</svg>
