<svg width="20" height="20" viewBox="0 0 20 20" fill="none" xmlns="http://www.w3.org/2000/svg">
<g clip-path="url(#clip0_17_62)">
<path d="M10 20C15.5228 20 20 15.5228 20 10C20 4.47715 15.5228 0 10 0C4.47715 0 0 4.47715 0 10C0 15.5228 4.47715 20 10 20Z" fill="#F26798"/>
<path d="M9.99981 3.64893C6.49362 3.64893 3.64111 6.49805 3.64111 9.99978C3.64111 13.5015 6.49362 16.3504 9.99981 16.3504C13.5062 16.3504 16.3589 13.5017 16.3589 9.99978C16.3589 6.49805 13.5062 3.64893 9.99981 3.64893ZM14.1841 6.64636C14.9094 7.54532 15.3503 8.68066 15.3706 9.91778C15.1292 9.86822 14.1071 9.67766 12.8856 9.67766C12.4915 9.67766 12.0767 9.69745 11.6608 9.74879C11.6257 9.6634 11.5906 9.57837 11.5537 9.49245C11.4458 9.23879 11.3296 8.98708 11.2093 8.73913C13.0892 7.96459 13.996 6.88968 14.1841 6.64636ZM9.99981 4.64308C11.3548 4.64308 12.5933 5.14648 13.5393 5.97557C13.3896 6.17985 12.5774 7.19504 10.7647 7.87991C9.92565 6.34617 9.00726 5.07607 8.78871 4.78123C9.17821 4.69103 9.58357 4.64308 9.99981 4.64308ZM7.69224 5.1636C7.87745 5.41869 8.79727 6.70233 9.6579 8.22378C7.3482 8.83093 5.29714 8.8705 4.80212 8.8705H4.74953C5.10516 7.23158 6.21251 5.86968 7.69224 5.1636ZM4.6276 10.0082C4.6276 9.96395 4.62831 9.91974 4.62974 9.87571C4.66183 9.87606 4.70924 9.87606 4.77074 9.87606C5.43743 9.87606 7.7516 9.82098 10.1364 9.11329C10.2811 9.39637 10.4189 9.68372 10.5471 9.9709C10.4868 9.98819 10.4275 10.0055 10.3684 10.0247C7.68332 10.892 6.20751 13.1878 5.98041 13.563C5.13903 12.615 4.6276 11.3704 4.6276 10.0082ZM9.99981 15.3729C8.76768 15.3729 7.63056 14.9556 6.72322 14.2559C6.8767 13.955 7.99064 11.9494 10.9332 10.9253C10.935 10.9246 10.9369 10.9239 10.9391 10.9233C11.6769 12.8443 11.9894 14.4564 12.0751 14.9561C11.4366 15.2246 10.7353 15.3729 9.99981 15.3729ZM13.0427 14.4272C12.9707 14.0138 12.6812 12.5029 12.0131 10.66C12.3878 10.6018 12.7523 10.5788 13.0942 10.5788C14.2171 10.5788 15.0954 10.8246 15.2995 10.887C15.0568 12.3503 14.219 13.6167 13.0427 14.4272Z" fill="#F1F2F2"/>
</g>
<defs>
<clipPath id="clip0_17_62">
<rect width="20" height="20" fill="white"/>
</clipPath>
</defs>
</svg>
