<svg width="260" height="150" viewBox="0 0 260 150" fill="none" xmlns="http://www.w3.org/2000/svg">
<g filter="url(#filter0_d_16_73)">
<rect x="25" y="10" width="210" height="100" rx="5" fill="white"/>
</g>
<path fill-rule="evenodd" clip-rule="evenodd" d="M89.208 66.2517C89.208 64.1317 88.9961 62.8605 88.1479 62.0116C87.2998 60.9516 86.0279 60.5279 83.2716 60.5279C81.7878 60.5279 80.7271 60.316 80.3034 60.316H72.6713C71.8232 60.1034 71.3987 59.6797 71.3987 58.8322C71.3987 57.7722 72.035 57.3485 73.3069 57.1359H78.607C82.4227 57.1359 82.8471 57.3485 82.8471 59.0441H88.571C88.571 55.6515 87.9347 54.3796 86.0265 53.744C84.5428 53.1077 83.0583 53.1077 77.5463 53.1077C73.9418 53.1077 72.2462 53.1077 70.5499 53.3202C66.9454 53.744 65.8854 55.4403 65.8854 59.0441C65.8854 62.0116 66.5217 63.4954 68.6417 64.1317C69.4899 64.5561 71.1862 64.5561 73.9418 64.5561H79.0301C81.362 64.5561 81.5746 64.768 81.9983 64.768C83.0583 64.768 83.6939 65.4043 83.6939 66.2517C83.6939 67.9487 82.8465 68.1606 76.2744 68.1606C74.7907 68.1606 73.0944 68.1606 72.6706 67.9487C71.8225 67.7355 71.6106 67.3124 71.6106 66.0399H65.8868V67.0992C65.8868 69.8555 66.7349 71.1281 68.855 71.7644C70.3387 71.9763 72.2476 72.1875 76.4877 72.1875C80.5159 72.1875 81.9997 72.1875 84.3323 71.7644C87.9361 71.5532 89.208 69.8562 89.208 66.2517ZM119.949 71.9763L109.773 53.1077H102.14L91.5399 71.9763H97.9L99.8082 68.5837H111.892L113.8 71.9763H119.949ZM109.985 64.768H101.928L105.745 57.1359L109.985 64.768Z" fill="#0C0E0F"/>
<path fill-rule="evenodd" clip-rule="evenodd" d="M121.645 62.6472C121.645 52.2595 130.125 43.7793 140.514 43.7793C148.781 43.7793 155.777 49.2913 158.322 56.7115C160.866 49.2913 167.862 43.7793 176.131 43.7793C186.519 43.7793 195 52.2595 195 62.6472C195 73.0356 186.519 81.3046 176.131 81.3046C167.863 81.3046 160.866 76.0031 158.322 68.5829C155.777 76.0031 148.782 81.3046 140.514 81.3046C130.125 81.3046 121.645 73.0356 121.645 62.6472Z" fill="#305DA2"/>
<path fill-rule="evenodd" clip-rule="evenodd" d="M152.175 66.2517C152.175 64.1317 151.75 62.8605 151.114 62.0116C150.055 60.9516 148.994 60.5279 146.239 60.5279C144.755 60.5279 143.482 60.316 143.269 60.316H135.638C134.79 60.1034 134.365 59.6797 134.365 58.8322C134.365 57.7722 134.79 57.3485 136.274 57.1359H141.362C145.178 57.1359 145.814 57.3485 145.814 59.0441H151.326C151.326 55.6515 150.691 54.3796 148.782 53.744C147.509 53.1077 146.026 53.1077 140.514 53.1077C136.91 53.1077 135.214 53.1077 133.306 53.3202C129.913 53.744 128.641 55.4403 128.641 59.0441C128.641 62.0116 129.49 63.4954 131.397 64.1317C132.458 64.5561 133.942 64.5561 136.699 64.5561H141.999C144.331 64.5561 144.543 64.768 144.755 64.768C146.026 64.768 146.451 65.4043 146.451 66.2517C146.451 67.9487 145.814 68.1606 139.031 68.1606C137.547 68.1606 136.062 68.1606 135.426 67.9487C134.578 67.7355 134.365 67.3124 134.365 66.0399H128.853C128.641 66.4643 128.641 66.888 128.641 67.0992C128.641 69.8555 129.702 71.1281 131.822 71.7644C133.094 71.9763 135.001 72.1875 139.242 72.1875C143.269 72.1875 144.966 72.1875 147.298 71.7644C150.902 71.5532 152.175 69.8562 152.175 66.2517ZM190.335 71.9763L180.16 53.1077H172.315L161.927 71.9763H168.286L170.195 68.5837H182.278L184.187 71.9763H190.335Z" fill="white"/>
<path fill-rule="evenodd" clip-rule="evenodd" d="M180.16 64.7678H172.103L176.131 57.135L180.16 64.7678Z" fill="#305DA2"/>
<defs>
<filter id="filter0_d_16_73" x="0" y="0" width="260" height="150" filterUnits="userSpaceOnUse" color-interpolation-filters="sRGB">
<feFlood flood-opacity="0" result="BackgroundImageFix"/>
<feColorMatrix in="SourceAlpha" type="matrix" values="0 0 0 0 0 0 0 0 0 0 0 0 0 0 0 0 0 0 127 0" result="hardAlpha"/>
<feOffset dy="15"/>
<feGaussianBlur stdDeviation="12.5"/>
<feColorMatrix type="matrix" values="0 0 0 0 0.757257 0 0 0 0 0.787279 0 0 0 0 0.804167 0 0 0 0.25 0"/>
<feBlend mode="normal" in2="BackgroundImageFix" result="effect1_dropShadow_16_73"/>
<feBlend mode="normal" in="SourceGraphic" in2="effect1_dropShadow_16_73" result="shape"/>
</filter>
</defs>
</svg>
