<svg width="260" height="150" viewBox="0 0 260 150" fill="none" xmlns="http://www.w3.org/2000/svg">
<g filter="url(#filter0_d_16_86)">
<rect x="25" y="10" width="210" height="100" rx="5" fill="white"/>
</g>
<path d="M72.1598 74L71.9266 74C71.81 73.8826 58.657 70.3591 59.0069 50.6745L59.0069 50.3926L60.8026 47.8087L61.1524 47.7617C61.3856 47.7148 72.1598 46 72.1598 46C72.1598 46 82.9806 47.6913 83.2138 47.7617L83.4937 47.8087L85.2894 50.3926L85.2894 50.6745C85.5226 60.8691 82.0245 66.6712 79.0627 69.7248C75.8445 73.0604 72.4629 74 72.1598 74ZM60.8259 51.0268C60.5927 67.7987 70.5506 71.604 72.1831 72.1208C73.8622 71.604 83.7502 67.7752 83.5403 50.9564L82.4442 49.3826C81.2316 49.1007 76.4508 47.9262 72.2064 47.8087C67.962 47.9262 63.2512 49.1007 61.9686 49.3826L60.8259 51.0268Z" fill="#01426A"/>
<path d="M67.6821 58.2382L77.4536 58.2382L77.4536 60.1643L67.6821 60.1643L67.6821 58.2382ZM67.6821 63.1006L77.4536 63.1006L77.4536 65.0268L67.6821 65.0268L67.6821 63.1006ZM67.6821 53.3757L77.4536 53.3757L77.4536 55.3019L67.6821 55.3019L67.6821 53.3757Z" fill="#01426A"/>
<path d="M67.6355 60.9395C66.7026 60.9395 65.8864 60.1174 65.8864 59.1308C65.8864 58.1912 66.6327 57.3221 67.6355 57.3221L72.2297 57.3221L72.2297 55.9832L67.5655 55.9832C65.8164 55.9832 64.4871 57.3925 64.4871 59.1543C64.4871 60.916 65.8864 62.3254 67.5655 62.3254L72.2297 62.3254L72.2297 60.9395L67.6355 60.9395Z" fill="#42C31D"/>
<path d="M92.892 65.0974L92.892 53.4464L100.448 53.4464L100.448 55.0672L94.7343 55.0672L94.7343 58.4263L99.6783 58.4263L99.6783 60.0471L94.7343 60.0471L94.7343 63.4061L100.448 63.4061L100.448 65.0974L92.892 65.0974ZM106.325 65.4028C105.229 65.4028 104.109 65.1209 103.013 64.5806L102.85 64.5337L103.666 62.7719L103.829 62.8189C104.692 63.2182 105.578 63.4531 106.325 63.4531C108.307 63.4531 108.424 62.3491 108.424 62.0437C108.424 61.527 108.377 60.8223 107.607 60.5169C107.444 60.4699 107.024 60.282 106.558 60.1645C105.275 59.9296 102.897 59.4129 102.897 56.4061C102.897 55.4196 103.246 54.5974 103.876 54.0102C104.576 53.4229 105.509 53.141 106.838 53.141C107.584 53.141 108.4 53.2585 109.053 53.3055C109.333 53.3524 110.103 53.4229 110.103 53.4229L109.986 55.3491C109.986 55.3491 109.24 55.2316 108.89 55.1847C108.307 55.1377 107.561 55.0672 106.861 55.0202C105.065 54.9732 104.879 55.8894 104.832 56.3592C104.786 56.7585 104.832 57.6981 106.931 58.1679C107.631 58.3323 108.26 58.5202 108.843 58.8726C110.289 59.6947 110.522 61.1511 110.243 62.7484C110.126 63.5001 109.66 64.2048 108.843 64.6746C108.237 65.1679 107.304 65.4028 106.325 65.4028ZM116.376 65.3323C115.397 65.3323 114.347 65.2149 113.461 64.3927C112.528 63.4531 112.132 61.9263 112.178 59.178C112.132 56.4766 112.528 54.9028 113.461 54.0102C114.277 53.188 115.373 53.0706 116.376 53.0706C116.842 53.0706 117.309 53.0706 117.822 53.1175C118.452 53.1645 119.688 53.3994 119.734 53.3994L119.897 53.4464L119.897 55.443C119.897 55.443 119.734 55.443 119.501 55.3961C119.105 55.3491 118.172 55.1612 117.705 55.1612C117.192 55.1142 116.726 55.1142 116.376 55.1142C115.63 55.1142 115.163 55.2316 114.86 55.4665C114.394 55.9363 114.161 57.1578 114.161 59.2249L114.161 59.2719C114.114 61.2686 114.324 62.5605 114.86 63.0303C115.14 63.2652 115.56 63.3827 116.376 63.3827C116.772 63.3827 117.239 63.3827 117.705 63.3357C118.288 63.2887 119.688 63.0538 119.688 63.0538L119.921 63.0068L119.921 65.0035L119.758 65.0504C119.711 65.0504 118.428 65.2853 117.845 65.3323C117.309 65.2853 116.842 65.3323 116.376 65.3323ZM128.829 65.0974L125.914 61.2216L124.235 61.2216L124.235 65.0974L122.136 65.0974L122.136 53.4464L127.034 53.4464C128.48 53.4464 130.299 54.7383 130.299 57.2048C130.299 59.9531 128.27 60.7753 128.153 60.8457L131.231 65.1914L128.853 65.1914L128.853 65.0974L128.829 65.0974ZM126.87 59.178C127.5 59.178 128.27 58.4733 128.27 57.2988C128.27 56.1947 127.64 55.537 126.824 55.537L124.258 55.537L124.258 59.178L126.87 59.178ZM137.038 65.3323C134.356 65.3323 132.561 63.8055 132.561 61.5739L132.561 56.7115C132.561 54.5504 134.31 53.188 137.038 53.188C139.72 53.188 141.516 54.7149 141.516 56.9464L141.516 61.6444C141.516 63.8055 139.65 65.3323 137.038 65.3323ZM137.038 55.0202C135.826 55.0202 134.543 55.49 134.543 56.8994L134.543 61.3625C134.543 62.584 135.592 63.4766 137.038 63.4766C138.484 63.4766 139.534 62.6075 139.534 61.3625L139.534 57.1343C139.487 55.8894 138.437 55.0202 137.038 55.0202ZM152.523 65.0504L150.308 56.1947L148.092 65.0504L145.714 65.0504L142.752 53.0941L144.944 53.0941L147.043 61.527L149.142 53.0941L151.52 53.0941L153.619 61.527L155.718 53.0941L157.934 53.0941L154.972 65.0504L152.523 65.0504Z" fill="#01426A"/>
<path d="M159.496 65.3322C160.23 65.3322 160.826 64.7327 160.826 63.9932C160.826 63.2538 160.23 62.6543 159.496 62.6543C158.762 62.6543 158.167 63.2538 158.167 63.9932C158.167 64.7327 158.762 65.3322 159.496 65.3322Z" fill="#42C31D"/>
<path d="M166.959 65.3323C165.979 65.3323 164.93 65.2149 164.044 64.3927C163.111 63.4531 162.714 61.9263 162.761 59.1779C162.714 56.4766 163.111 54.9028 164.044 54.0102C164.86 53.188 165.956 53.0706 166.959 53.0706C167.425 53.0706 167.938 53.0706 168.475 53.1175C169.104 53.1645 170.27 53.3994 170.34 53.3994L170.504 53.4464L170.504 55.443L170.34 55.443C169.944 55.3961 168.708 55.1612 168.311 55.1612C167.798 55.1142 167.332 55.1142 166.982 55.1142C166.236 55.1142 165.769 55.2316 165.466 55.4665C165 55.9363 164.767 57.1578 164.767 59.2249L164.767 59.2719C164.72 61.2685 164.93 62.5605 165.466 63.0303C165.746 63.2652 166.166 63.3826 166.982 63.3826C167.379 63.3826 167.845 63.3826 168.311 63.3357C168.894 63.2887 170.294 63.0538 170.294 63.0538L170.527 63.0068L170.527 65.0034L170.364 65.0504C170.317 65.0504 169.034 65.2853 168.451 65.3323L166.959 65.3323ZM177.08 65.3323C174.515 65.3323 172.719 63.8055 172.719 61.5739L172.719 56.641C172.719 54.48 174.468 53.1175 177.08 53.1175C179.645 53.1175 181.441 54.6444 181.441 56.8759L181.441 61.5739C181.441 63.8055 179.622 65.3323 177.08 65.3323ZM177.08 55.0202C175.914 55.0202 174.631 55.49 174.631 56.8994L174.631 61.3625C174.631 62.584 175.611 63.4766 177.08 63.4766C178.479 63.4766 179.529 62.6075 179.529 61.3625L179.529 57.1343C179.459 55.8893 178.479 55.0202 177.08 55.0202ZM192.845 65.3323L192.542 58.1209L190.326 63.7585L188.134 63.7585L185.849 58.1209L185.615 65.3323L183.54 65.3323L183.936 53.141L185.965 53.141L189.23 61.292L192.495 53.141L194.477 53.141L194.944 65.3323L192.845 65.3323Z" fill="#42C31D"/>
<path d="M199.072 63.6411L198.489 63.6411L198.489 65.3323L198.139 65.3323L198.139 63.6411L197.556 63.6411L197.556 63.3592L199.118 63.3592L199.118 63.6411L199.072 63.6411ZM201.684 63.3357L201.684 65.3323L201.334 65.3323L201.334 64.0404L201.334 63.876L200.751 65.0504C200.751 65.0974 200.704 65.0974 200.634 65.0974L200.588 65.0974C200.541 65.0974 200.471 65.0974 200.471 65.0504L199.841 63.876L199.841 65.3323L199.491 65.3323L199.491 63.3357L199.865 63.3357L199.865 63.3827L200.448 64.4867C200.448 64.5337 200.494 64.5337 200.494 64.6041C200.494 64.6511 200.494 64.6511 200.541 64.7216C200.541 64.6746 200.541 64.6746 200.588 64.6041C200.588 64.5572 200.588 64.5572 200.634 64.4867L201.217 63.3827L201.217 63.3357L201.31 63.3357L201.684 63.3357Z" fill="#01426A"/>
<defs>
<filter id="filter0_d_16_86" x="0" y="0" width="260" height="150" filterUnits="userSpaceOnUse" color-interpolation-filters="sRGB">
<feFlood flood-opacity="0" result="BackgroundImageFix"/>
<feColorMatrix in="SourceAlpha" type="matrix" values="0 0 0 0 0 0 0 0 0 0 0 0 0 0 0 0 0 0 127 0" result="hardAlpha"/>
<feOffset dy="15"/>
<feGaussianBlur stdDeviation="12.5"/>
<feColorMatrix type="matrix" values="0 0 0 0 0.757257 0 0 0 0 0.787279 0 0 0 0 0.804167 0 0 0 0.25 0"/>
<feBlend mode="normal" in2="BackgroundImageFix" result="effect1_dropShadow_16_86"/>
<feBlend mode="normal" in="SourceGraphic" in2="effect1_dropShadow_16_86" result="shape"/>
</filter>
</defs>
</svg>
