<svg width="260" height="150" viewBox="0 0 260 150" fill="none" xmlns="http://www.w3.org/2000/svg">
<g filter="url(#filter0_d_16_22)">
<rect x="25" y="10" width="210" height="100" rx="5" fill="white"/>
</g>
<path fill-rule="evenodd" clip-rule="evenodd" d="M68.6823 73.3289H186.423V71.9751H68.6823V73.3289ZM68.6823 48.9681H186.423V47.615H68.6823V48.9681ZM116.05 51.675V69.2682H134.32V65.0729H121.328V51.675H116.05ZM112.802 55.8696V51.675H93.7195V69.2682H112.802V65.0729H98.9974V62.5013H112.802V58.306H98.9974V55.8696H112.802ZM156.515 55.8696V51.675H137.432V69.2682H156.515V65.0729H142.71V62.5013H156.515V58.306H142.71V55.8696H156.515ZM76.9377 69.2682H82.2156V55.8696H90.4709V51.675H68.6823V55.8696H76.9377V69.2682ZM179.86 51.675L173.296 58.1708L166.394 51.675H160.033L169.236 60.6072L160.168 69.2682H166.53L172.89 63.1112L179.387 69.2682H185.882L176.814 60.6072L186.017 51.675H179.86ZM189.035 66.1259C187.966 66.1259 187.062 66.9484 187.062 68.0645C187.062 69.1909 187.966 70.0134 189.035 70.0134C190.094 70.0134 191 69.1909 191 68.0645C191 66.949 190.094 66.1259 189.035 66.1259ZM189.035 69.6888C188.146 69.6888 187.451 69.0003 187.451 68.0645C187.451 67.1442 188.146 66.4499 189.035 66.4499C189.914 66.4499 190.608 67.1442 190.608 68.0645C190.608 69.0003 189.914 69.6888 189.035 69.6888Z" fill="black"/>
<path fill-rule="evenodd" clip-rule="evenodd" d="M189.349 68.2035C189.678 68.1623 189.929 67.9871 189.929 67.5866C189.929 67.1441 189.667 66.949 189.137 66.949H188.283V69.1908H188.623V68.2183H189.014L189.605 69.1908H189.985L189.349 68.2035ZM188.623 67.9305V67.2369H189.086C189.323 67.2369 189.575 67.2877 189.575 67.566C189.575 67.9105 189.318 67.9305 189.03 67.9305H188.623Z" fill="black"/>
<defs>
<filter id="filter0_d_16_22" x="0" y="0" width="260" height="150" filterUnits="userSpaceOnUse" color-interpolation-filters="sRGB">
<feFlood flood-opacity="0" result="BackgroundImageFix"/>
<feColorMatrix in="SourceAlpha" type="matrix" values="0 0 0 0 0 0 0 0 0 0 0 0 0 0 0 0 0 0 127 0" result="hardAlpha"/>
<feOffset dy="15"/>
<feGaussianBlur stdDeviation="12.5"/>
<feColorMatrix type="matrix" values="0 0 0 0 0.757257 0 0 0 0 0.787279 0 0 0 0 0.804167 0 0 0 0.25 0"/>
<feBlend mode="normal" in2="BackgroundImageFix" result="effect1_dropShadow_16_22"/>
<feBlend mode="normal" in="SourceGraphic" in2="effect1_dropShadow_16_22" result="shape"/>
</filter>
</defs>
</svg>
