<svg width="260" height="150" viewBox="0 0 260 150" fill="none" xmlns="http://www.w3.org/2000/svg">
<g filter="url(#filter0_d_16_21)">
<rect x="25" y="10" width="210" height="100" rx="5" fill="white"/>
</g>
<path fill-rule="evenodd" clip-rule="evenodd" d="M144.649 69.7073H139.611V68.4886C138.895 69.0246 138.093 69.4365 137.241 69.7073C136.436 69.9376 135.584 70.0527 134.664 70.0527C132.317 70.0527 130.339 69.1326 128.728 67.2924C127.094 65.4512 126.289 63.3574 126.289 61.0108C126.289 58.2037 127.21 55.9263 129.051 54.177C130.775 52.5436 132.87 51.7152 135.309 51.7152C137.863 51.7152 140.094 52.6354 141.958 54.4531C143.754 56.2016 144.649 58.2037 144.649 60.4585V69.7073ZM139.611 61.3094C139.611 60.2283 139.219 59.2614 138.392 58.4097C137.586 57.5354 136.69 57.0983 135.676 57.0983C134.365 57.0983 133.306 57.5129 132.524 58.2945C131.718 59.1004 131.328 60.0898 131.328 61.2635C131.328 62.4822 131.718 63.4491 132.478 64.1624C133.238 64.8756 134.181 65.2435 135.286 65.2435C136.389 65.2435 137.403 64.8522 138.275 64.0706C139.174 63.2881 139.611 62.368 139.611 61.3094ZM174.123 69.7073L172.835 69.7298C169.567 69.7298 167.013 68.8555 165.173 67.0846C163.469 65.4278 162.619 63.3115 162.619 60.7113C162.619 58.1344 163.492 55.9938 165.264 54.3146C167.012 52.6354 169.405 51.7836 172.397 51.7836L174.122 51.8987V56.6387L172.95 56.5236C171.223 56.5236 169.935 57.0075 169.083 57.9734C168.37 58.755 168.025 59.6985 168.025 60.8264C168.025 62.2754 168.668 63.334 169.935 63.9555C170.901 64.416 172.305 64.6462 174.121 64.6462V69.7073H174.123ZM82.9877 69.7073H77.9492V59.1004C77.9492 58.4798 77.6731 57.9042 77.1208 57.3753C76.5461 56.8231 75.948 56.5703 75.3265 56.5703C74.7508 56.5703 74.222 56.8465 73.7381 57.4212C73.2326 57.9968 72.979 58.6867 72.979 59.4683V69.7073H68.0097V59.3073C68.0097 58.5482 67.7569 57.8817 67.2038 57.3061C66.6515 56.7304 66.0768 56.4543 65.4787 56.4543C64.7421 56.4543 64.1673 56.7304 63.7068 57.2827C63.2697 57.8349 63.0619 58.433 63.0619 59.0545V69.7073H58V58.6399C58 56.6612 58.8742 54.982 60.6002 53.6247C62.1185 52.4051 63.7752 51.7836 65.5237 51.7836C67.0878 51.7836 68.6986 52.4744 70.4012 53.8307C71.087 53.1836 71.8919 52.6759 72.7712 52.3359C73.6688 51.9671 74.5197 51.7836 75.3256 51.7836C77.2575 51.7836 78.9835 52.4276 80.5017 53.6706C82.1585 55.0512 82.9868 56.7772 82.9868 58.8477V69.7073H82.9877ZM103.396 69.7073H98.3337V68.4886C97.6175 69.0247 96.8164 69.4367 95.9637 69.7073C95.1587 69.9376 94.3079 70.0527 93.3869 70.0527C91.0636 70.0527 89.084 69.1326 87.4507 67.2924C85.8173 65.4512 85.0123 63.3574 85.0123 61.0108C85.0123 58.2037 85.9324 55.9263 87.796 54.177C89.4986 52.5436 91.5925 51.7152 94.0317 51.7152C96.6086 51.7152 98.8176 52.6354 100.681 54.4531C102.499 56.2016 103.397 58.2037 103.397 60.4585V69.7073H103.396ZM98.3337 61.3094C98.3337 60.2283 97.9424 59.2614 97.1374 58.4097C96.3325 57.5354 95.4123 57.0983 94.3996 57.0983C93.0882 57.0983 92.0296 57.5129 91.2471 58.2945C90.4412 59.1004 90.0509 60.0898 90.0509 61.2635C90.0509 62.4822 90.4421 63.4491 91.2013 64.1624C91.9838 64.8756 92.9039 65.2435 94.0084 65.2435C95.1128 65.2435 96.1256 64.8522 97.0223 64.0706C97.8966 63.2881 98.3337 62.368 98.3337 61.3094ZM124.379 60.5035C124.379 63.1955 123.482 65.4503 121.665 67.2447C119.869 69.0624 117.66 69.9825 115.084 69.9825C112.484 69.9825 110.275 69.0633 108.481 67.2447C106.686 65.4045 105.766 63.173 105.766 60.5494C105.766 58.3179 106.594 56.3158 108.205 54.5682C109.931 52.6812 112.025 51.7611 114.486 51.7611C116.074 51.7611 117.638 52.1524 119.157 52.9574V49.1609H124.38V60.5035H124.379ZM119.156 60.8723C119.156 59.7678 118.765 58.8252 118.006 57.9968C117.27 57.1909 116.257 56.7997 115.015 56.7997C113.911 56.7997 112.967 57.2368 112.186 58.0886C111.404 58.9403 111.012 59.9288 111.012 61.0108C111.012 62.0694 111.449 62.967 112.301 63.7486C113.175 64.5311 114.188 64.9233 115.406 64.9233C116.511 64.9233 117.431 64.5311 118.122 63.7261C118.812 62.9427 119.156 61.9768 119.156 60.8723Z" fill="#6D6E70"/>
<path fill-rule="evenodd" clip-rule="evenodd" d="M160.111 64.7372C160.111 66.4632 159.398 67.8429 157.994 68.924C156.682 69.9142 155.095 70.3972 153.232 70.3972C151.092 70.3972 149.297 69.8909 147.87 68.879V64.0014C148.606 64.5069 149.319 64.9215 150.056 65.2435C151.022 65.6582 151.897 65.8641 152.68 65.8641C153.346 65.8641 153.945 65.7265 154.451 65.4729C154.958 65.2193 155.21 64.8748 155.21 64.461C155.21 64.139 153.946 63.4483 151.414 62.3672C148.86 61.2861 147.595 59.6509 147.595 57.4896C147.595 55.787 148.192 54.3381 149.39 53.1634C150.701 51.8745 152.426 51.2314 154.567 51.2314C155.372 51.2314 156.154 51.3232 156.937 51.5076C157.719 51.6911 158.616 51.9906 159.628 52.3818V57.4662C159.077 56.9374 158.386 56.5003 157.625 56.1774C156.844 55.8329 156.107 55.6719 155.44 55.6719C154.772 55.6719 154.152 55.7645 153.576 55.9939C153.001 56.2241 152.726 56.5695 152.726 57.0291C152.726 57.5355 153.945 58.318 156.407 59.3757C158.869 60.4343 160.111 62.2296 160.111 64.7372Z" fill="#A6BC7A"/>
<path fill-rule="evenodd" clip-rule="evenodd" d="M193.242 69.7074H187.951V58.9863C187.951 58.2263 187.675 57.5598 187.099 56.9617C186.525 56.3636 185.835 56.064 185.053 56.064C184.386 56.064 183.741 56.3636 183.144 56.9617C182.545 57.5598 182.246 58.2505 182.246 59.0555V69.7083H176.978V49H182.246V52.2901C183.465 51.692 184.8 51.3934 186.227 51.3934C188.182 51.3934 189.839 52.1066 191.196 53.5556C192.554 54.982 193.242 56.6622 193.242 58.5483V69.7074ZM202.124 69.7299H196.925V52.1516H202.124V69.7299Z" fill="#6D6E70"/>
<defs>
<filter id="filter0_d_16_21" x="0" y="0" width="260" height="150" filterUnits="userSpaceOnUse" color-interpolation-filters="sRGB">
<feFlood flood-opacity="0" result="BackgroundImageFix"/>
<feColorMatrix in="SourceAlpha" type="matrix" values="0 0 0 0 0 0 0 0 0 0 0 0 0 0 0 0 0 0 127 0" result="hardAlpha"/>
<feOffset dy="15"/>
<feGaussianBlur stdDeviation="12.5"/>
<feColorMatrix type="matrix" values="0 0 0 0 0.757257 0 0 0 0 0.787279 0 0 0 0 0.804167 0 0 0 0.25 0"/>
<feBlend mode="normal" in2="BackgroundImageFix" result="effect1_dropShadow_16_21"/>
<feBlend mode="normal" in="SourceGraphic" in2="effect1_dropShadow_16_21" result="shape"/>
</filter>
</defs>
</svg>
