<svg width="260" height="150" viewBox="0 0 260 150" fill="none" xmlns="http://www.w3.org/2000/svg">
<g filter="url(#filter0_d_16_34)">
<rect x="25" y="10" width="210" height="100" rx="5" fill="white"/>
</g>
<path d="M97.9781 68.2821C95.1663 68.2821 93.901 66.3055 93.901 63.7137V54.5507C93.901 53.6474 94.5528 52.9275 95.4219 52.9275C96.2654 52.9275 96.9428 53.6474 96.9428 54.5507V56.1346H99.7801C100.521 56.1346 101.186 56.7105 101.186 57.5221C101.186 58.2813 100.534 58.8704 99.7801 58.8704H96.9428V63.6482C96.9428 64.7609 97.4157 65.363 98.4126 65.363C98.911 65.363 99.4095 65.219 99.8185 65.1143C100.969 64.8394 101.697 65.5725 101.697 66.4364C101.697 66.9469 101.454 67.4836 100.751 67.8109C99.9463 68.1643 98.8471 68.2821 97.9781 68.2821Z" fill="#424C50"/>
<path d="M111.168 57.3126C111.168 57.9409 110.695 58.7787 109.736 58.7787C109.212 58.7787 108.714 58.5431 108.036 58.5693C107.282 58.5955 106.861 59.0143 106.861 60.0746V66.6327C106.861 67.5098 106.209 68.2036 105.34 68.2036C104.496 68.2036 103.819 67.5098 103.819 66.6327V59.4856C103.819 57.077 105.199 55.5193 107.806 55.5193C108.548 55.5193 109.302 55.5847 109.749 55.7025C110.682 55.9643 111.168 56.5403 111.168 57.3126Z" fill="#424C50"/>
<path d="M119.769 60.8601C119.922 60.8601 120.012 60.7685 120.012 60.5852C120.076 59.1715 119.219 58.2159 117.75 58.2159C116.139 58.2159 115.347 59.2631 115.347 60.8601H119.769ZM122.939 61.423C122.939 62.3262 122.491 62.9807 121.379 62.9807H115.36V63.2163C115.36 64.6824 116.446 65.4678 117.967 65.4678C118.785 65.4678 119.616 65.2584 120.395 64.9573C121.597 64.4991 122.389 65.3238 122.389 66.1878C122.389 66.6328 122.236 67.1171 121.622 67.4837C120.779 67.9942 119.335 68.2952 117.89 68.2952C114.759 68.2952 112.663 66.2794 112.433 63.3734C112.369 62.4702 112.382 61.1874 112.433 60.4674C112.701 57.4567 114.81 55.5325 117.775 55.5325C120.855 55.5325 122.964 57.64 122.964 60.9125V61.423H122.939Z" fill="#424C50"/>
<path d="M132.562 60.8601C132.716 60.8601 132.818 60.7685 132.818 60.5852C132.882 59.1715 132.026 58.2159 130.556 58.2159C128.946 58.2159 128.153 59.2631 128.153 60.8601H132.562ZM135.732 61.423C135.732 62.3262 135.285 62.9807 134.173 62.9807H128.153V63.2163C128.153 64.6824 129.239 65.4678 130.76 65.4678C131.578 65.4678 132.409 65.2584 133.189 64.9573C134.39 64.4991 135.182 65.3238 135.182 66.1878C135.182 66.6328 135.029 67.1171 134.416 67.4837C133.572 67.9942 132.128 68.2952 130.684 68.2952C127.552 68.2952 125.456 66.2794 125.226 63.3734C125.162 62.4702 125.188 61.1874 125.226 60.4674C125.495 57.4567 127.604 55.5325 130.569 55.5325C133.649 55.5325 135.758 57.64 135.758 60.9125V61.423H135.732Z" fill="#424C50"/>
<path d="M141.381 56.4355C141.88 55.9774 143.03 55.5323 144.231 55.5323C147.107 55.5323 148.807 57.2995 148.807 60.6113V66.5672C148.807 67.4966 148.168 68.2166 147.273 68.2166C146.429 68.2166 145.778 67.4966 145.778 66.5672V60.7684C145.778 59.3546 144.985 58.5692 143.746 58.5692C142.787 58.5692 141.867 59.0143 141.394 59.5379V66.6065C141.394 67.4835 140.755 68.2035 139.899 68.2035C139.055 68.2035 138.365 67.4835 138.365 66.6065V53.0452C138.365 52.142 139.017 51.4482 139.886 51.4482C140.729 51.4482 141.407 52.142 141.407 53.0452V56.4355" fill="#424C50"/>
<path d="M159.287 60.7422C159.223 59.4201 158.315 58.4907 156.884 58.4907C155.453 58.4907 154.571 59.4201 154.456 60.7422C154.417 61.3705 154.417 62.457 154.456 63.0592C154.571 64.3812 155.453 65.3106 156.884 65.3106C158.315 65.3106 159.197 64.3812 159.287 63.0592C159.338 62.457 159.338 61.3705 159.287 60.7422ZM156.884 68.2821C153.919 68.2821 151.67 66.3317 151.452 63.5697C151.388 62.6403 151.388 61.1742 151.452 60.2579C151.682 57.4697 153.919 55.5193 156.884 55.5193C159.875 55.5193 162.073 57.4697 162.29 60.2579C162.354 61.1873 162.354 62.6272 162.29 63.5566C162.073 66.3317 159.875 68.2821 156.884 68.2821Z" fill="#424C50"/>
<path d="M164.949 57.2472C164.949 56.3179 165.498 55.5979 166.444 55.5979C167.3 55.5979 167.978 56.3179 167.978 57.2472V63.164C167.978 64.5515 168.86 65.3238 170.15 65.3238C171.147 65.3238 171.901 65.0227 172.374 64.7217V57.208C172.374 56.3309 173.013 55.611 173.895 55.611C174.739 55.611 175.416 56.3309 175.416 57.208V65.8867C175.416 66.4234 175.275 66.7244 174.879 66.9732C174.176 67.4837 172.528 68.2953 170.099 68.2953C166.84 68.2953 164.961 66.4888 164.961 63.2163V57.2472" fill="#424C50"/>
<path d="M187.366 64.2503C187.366 66.8422 185.257 68.2821 182.637 68.2821C180.503 68.2821 179.148 67.6538 178.317 66.9338C177.78 66.4757 177.614 65.5855 178.049 65.0096C178.496 64.3812 179.276 64.2503 180.017 64.7347C180.72 65.1928 181.653 65.4939 182.714 65.4939C183.889 65.4939 184.439 65.0488 184.439 64.4205C184.439 63.91 184.081 63.5566 183.123 63.334C182.305 63.1508 182.33 63.177 181.448 62.9413C179.595 62.457 178.138 61.3836 178.138 59.3939C178.138 56.8937 180.106 55.5193 182.765 55.5193C184.196 55.5193 185.666 55.8858 186.458 56.5665C187.11 57.1294 187.072 58.0718 186.599 58.6347C186.152 59.1452 185.372 59.2107 184.631 58.818C184.043 58.5169 183.25 58.3075 182.663 58.3075C181.525 58.3075 181.052 58.7525 181.052 59.3023C181.052 59.7866 181.397 60.1139 182.407 60.3495L184.017 60.716C186.267 61.2789 187.366 62.4177 187.366 64.2503Z" fill="#424C50"/>
<path d="M196.772 60.8601C196.926 60.8601 197.028 60.7685 197.028 60.5852C197.092 59.1715 196.236 58.2159 194.766 58.2159C193.155 58.2159 192.363 59.2631 192.363 60.8601H196.772ZM199.942 61.423C199.942 62.3262 199.495 62.9807 198.383 62.9807H192.363V63.2163C192.363 64.6824 193.449 65.4678 194.97 65.4678C195.788 65.4678 196.619 65.2584 197.399 64.9573C198.6 64.4991 199.392 65.3238 199.392 66.1878C199.392 66.6328 199.239 67.1171 198.626 67.4837C197.782 67.9942 196.338 68.2952 194.894 68.2952C191.762 68.2952 189.666 66.2794 189.436 63.3734C189.372 62.4702 189.398 61.1874 189.436 60.4674C189.705 57.4567 191.814 55.5325 194.779 55.5325C197.859 55.5325 199.968 57.64 199.968 60.9125V61.423H199.942Z" fill="#424C50"/>
<path d="M203.469 55.9774L203.699 56.9853L203.93 55.9774C203.968 55.781 204.147 55.6501 204.313 55.6501C204.517 55.6501 204.671 55.768 204.722 56.0298L204.926 57.3519C204.952 57.5089 204.901 57.666 204.747 57.6922C204.569 57.7315 204.441 57.6267 204.428 57.4566L204.287 56.3439L204.032 57.3911C203.981 57.5744 203.878 57.6922 203.699 57.6922C203.533 57.6922 203.431 57.5875 203.367 57.3911L203.112 56.3439L202.971 57.4697C202.945 57.6267 202.83 57.7315 202.651 57.7053C202.498 57.6791 202.447 57.522 202.473 57.3649L202.677 56.0559C202.715 55.7941 202.882 55.6763 203.086 55.6763C203.265 55.6501 203.431 55.768 203.469 55.9774ZM201.885 57.4304C201.885 57.5875 201.77 57.6922 201.629 57.6922C201.476 57.6922 201.361 57.5744 201.361 57.4304V56.1999H200.964C200.837 56.1999 200.722 56.0821 200.722 55.9512C200.722 55.7941 200.837 55.6894 200.964 55.6894H202.268C202.396 55.6894 202.511 55.7941 202.511 55.9512C202.511 56.0821 202.396 56.1999 202.268 56.1999H201.885V57.4304Z" fill="#424C50"/>
<path d="M81.2362 50.0216C80.1626 49.4063 78.4628 50.4012 77.4276 52.2469L75.5488 55.5848C74.8587 56.9724 74.9609 58.6217 75.83 59.9046L75.8811 59.9831C76.7502 61.2659 77.9132 62.444 78.2967 62.8629C78.5267 63.1116 78.6929 63.4127 78.7951 63.7661C79.1146 64.9311 78.45 66.1354 77.3125 66.4496C76.1751 66.7768 74.9992 66.0962 74.6925 64.9311C74.6158 64.6432 74.5903 64.3421 74.6286 64.0672C74.6925 63.5829 74.5391 62.8106 73.8746 62.0382C73.21 61.2659 71.8297 62.7189 71.3823 64.2112L71.3568 64.2766C70.9094 65.7689 70.6283 67.0648 70.7177 67.1826C70.7689 67.2612 70.82 67.3397 70.8583 67.4182C71.4846 68.6225 71.0373 70.1017 69.8614 70.7431C68.6856 71.3845 67.2414 70.9264 66.6152 69.7221C65.9889 68.5178 66.4362 67.0386 67.612 66.3972L67.7654 66.3187C67.8549 66.2794 68.1105 65.6511 68.3278 64.9181C68.545 64.185 68.724 63.5829 68.724 63.5829C68.7495 63.5043 68.7623 63.4258 68.7879 63.3472L69.9765 59.0144L68.7112 61.6717C68.5578 61.1612 68.315 61.1481 67.7654 61.5408C67.4331 61.7764 66.8963 62.2477 66.6279 62.444C66.1295 62.8106 65.7077 63.5174 65.4905 63.9494C65.3627 64.1981 65.1837 64.4337 64.9537 64.6301C64.0462 65.3893 62.7171 65.2453 61.9758 64.3159C61.2345 63.3865 61.3751 62.0252 62.2825 61.2659C62.5509 61.0434 62.8449 60.8994 63.1644 60.834C63.7012 60.7161 65.5032 59.5773 66.6024 58.7788C66.7941 58.6348 66.9602 58.5039 67.088 58.373L70.002 56.1084L67.4587 57.5091C67.4587 57.5091 67.2031 57.4829 66.8835 57.5222C65.9506 57.6269 64.992 57.7578 64.8131 57.9934C64.7108 58.1374 64.583 58.2552 64.4297 58.373C63.5861 59.0014 62.3975 58.805 61.7841 57.928C61.1706 57.064 61.3623 55.8466 62.2186 55.2183C62.5637 54.9565 62.9727 54.8387 63.3689 54.8518C64.0462 54.8649 65.8355 55.2445 67.3309 54.9696L67.7143 54.9042C69.2096 54.6293 70.9989 53.2941 71.7146 51.9196C71.7146 51.9196 72.4176 50.663 73.2739 49.1053C74.1429 47.5607 74.0663 45.8589 73.1333 45.3092L71.4335 44.3274C70.5772 43.83 69.1713 43.83 68.3022 44.3274L56.6207 51.1473C55.7644 51.6447 55.0615 52.8752 55.0615 53.8831V67.1172C55.0615 68.1251 55.7644 69.3556 56.6207 69.853L68.3533 76.6205C69.2096 77.118 70.6155 77.118 71.4846 76.6205L83.1789 69.853C84.0352 69.3556 84.7381 68.1251 84.7381 67.1041V53.8831C84.7381 52.8752 84.0352 51.6317 83.1789 51.1342C83.1661 51.1473 82.3098 50.6368 81.2362 50.0216Z" fill="#67B569"/>
<defs>
<filter id="filter0_d_16_34" x="0" y="0" width="260" height="150" filterUnits="userSpaceOnUse" color-interpolation-filters="sRGB">
<feFlood flood-opacity="0" result="BackgroundImageFix"/>
<feColorMatrix in="SourceAlpha" type="matrix" values="0 0 0 0 0 0 0 0 0 0 0 0 0 0 0 0 0 0 127 0" result="hardAlpha"/>
<feOffset dy="15"/>
<feGaussianBlur stdDeviation="12.5"/>
<feColorMatrix type="matrix" values="0 0 0 0 0.757257 0 0 0 0 0.787279 0 0 0 0 0.804167 0 0 0 0.25 0"/>
<feBlend mode="normal" in2="BackgroundImageFix" result="effect1_dropShadow_16_34"/>
<feBlend mode="normal" in="SourceGraphic" in2="effect1_dropShadow_16_34" result="shape"/>
</filter>
</defs>
</svg>
