<svg width="260" height="150" viewBox="0 0 260 150" fill="none" xmlns="http://www.w3.org/2000/svg">
<g filter="url(#filter0_d_16_53)">
<rect x="25" y="10" width="210" height="100" rx="5" fill="white"/>
</g>
<path d="M114.338 54.7094C113.167 54.7094 112.213 54.8898 111.505 55.2442C111.116 55.4401 110.764 55.7043 110.468 56.0243V49.2747H107.732V69.1829H110.392V68.0068C110.671 68.3196 111.004 68.5794 111.376 68.7736C112.114 69.1659 113.112 69.3641 114.337 69.3641C116.367 69.3641 117.834 68.9232 118.698 68.0566C119.563 67.1902 120 65.7095 120 63.6546V60.4336C120 58.3673 119.563 56.8807 118.698 56.0151C117.835 55.1484 116.368 54.7094 114.338 54.7094ZM117.174 60.8847V63.2023C117.174 65.2023 116.871 65.9497 116.619 66.2248C116.264 66.6105 115.448 66.8153 114.261 66.8153C112.912 66.8153 111.931 66.5283 111.347 65.96C110.764 65.3957 110.468 64.4506 110.468 63.1515V60.9334C110.468 59.627 110.764 58.6778 111.347 58.1117C111.931 57.5436 112.912 57.2564 114.261 57.2564C115.449 57.2564 116.264 57.4611 116.619 57.8468C116.871 58.1228 117.174 58.8734 117.174 60.8845V60.8847ZM133.298 55.5414C132.886 55.2369 132.288 55.0243 131.472 54.895C130.71 54.7716 129.584 54.7083 128.133 54.7083C126.199 54.7083 124.859 54.9713 124.037 55.5109C123.178 56.074 122.741 57.011 122.741 58.2942V58.9702H125.47L125.479 58.6118C125.493 58.017 125.649 57.6332 125.955 57.4398C126.196 57.2858 126.792 57.1035 128.262 57.1035C130.414 57.1035 131.076 57.3643 131.28 57.5179C131.512 57.691 131.782 58.1544 131.782 59.3765V60.8388C131.499 60.6359 131.168 60.4782 130.792 60.36C130.099 60.1452 129.14 60.0413 127.861 60.0413C126.636 60.0413 125.722 60.1006 125.062 60.2218C124.368 60.3489 123.827 60.5739 123.451 60.8877C123.011 61.2572 122.692 61.7552 122.504 62.3603C122.324 62.9405 122.236 63.7095 122.236 64.7084C122.236 66.4639 122.645 67.6952 123.452 68.3703C124.251 69.0384 125.726 69.3663 127.963 69.3663C129.198 69.3663 130.187 69.231 130.9 68.963C131.3 68.8142 131.646 68.6116 131.936 68.3601L131.98 69.1869H134.531V59.3297C134.531 58.1687 134.443 57.3602 134.262 56.8612C134.08 56.3378 133.756 55.898 133.298 55.5414H133.298ZM131.784 63.9359V65.3654C131.784 65.6305 131.703 66.0181 130.991 66.3392C130.373 66.6192 129.444 66.7639 128.238 66.7639C126.589 66.7639 125.915 66.5131 125.64 66.3043C125.267 66.0233 125.079 65.4022 125.079 64.4642C125.079 63.6548 125.254 63.1139 125.598 62.8585C125.856 62.6659 126.486 62.4357 128.017 62.4357C129.396 62.4357 130.404 62.5764 131.01 62.8523C131.538 63.0936 131.784 63.4387 131.784 63.9359ZM148.067 61.08C147.75 60.9313 147.26 60.8236 146.568 60.7452C145.914 60.6719 145.008 60.6118 143.869 60.5688C143.595 60.5567 143.321 60.5482 143.047 60.5434C141.404 60.5028 140.768 60.3408 140.533 60.2188C140.411 60.1504 140.333 60.0565 140.283 59.9242C140.25 59.8255 140.189 59.5669 140.189 58.9275C140.189 58.4181 140.269 57.7595 140.646 57.5068C140.842 57.3754 141.452 57.1555 143.31 57.1555C145.166 57.1555 145.944 57.3234 146.265 57.4671C146.654 57.6372 146.829 57.9153 146.829 58.3732V58.8693H149.578V58.5028C149.578 57.1117 149.162 56.1149 148.344 55.5374C147.556 54.9802 146.139 54.7105 144.018 54.7105C141.307 54.7105 139.58 54.9926 138.743 55.575C137.876 56.1782 137.439 57.3053 137.439 58.9275C137.439 59.908 137.555 60.6483 137.8 61.189C138.052 61.7522 138.477 62.1983 139.055 62.5172C139.331 62.6759 139.972 62.8693 142.481 62.9397C143.313 62.964 143.973 62.9916 144.462 63.0159C146.081 63.0995 146.573 63.3357 146.723 63.469C146.894 63.6219 147.097 64.0057 147.097 64.967C147.097 65.7541 146.94 66.2767 146.629 66.521C146.439 66.6698 145.799 66.9191 143.629 66.9191C141.782 66.9191 141.019 66.6919 140.707 66.5026C140.304 66.2591 140.108 65.799 140.108 65.0955V64.4222H137.334V65.1493C137.334 66.7276 137.782 67.844 138.658 68.4683C139.508 69.0731 141.144 69.3682 143.656 69.3682C144.844 69.3682 145.79 69.3254 146.464 69.2419C147.193 69.1534 147.711 69.0027 148.048 68.7847C148.75 68.356 149.25 67.844 149.528 67.2684C149.806 66.6971 149.94 65.9051 149.94 64.842C149.94 63.7979 149.803 63.0119 149.519 62.4406C149.233 61.8439 148.741 61.3876 148.067 61.08ZM162.491 64.4712L162.462 64.8053C162.396 65.5578 162.167 66.0831 161.783 66.3622C161.505 66.5678 160.874 66.8123 159.469 66.8123H158.527C156.972 66.8123 156.338 66.4864 156.082 66.2134C155.821 65.9354 155.508 65.2645 155.508 63.6492C155.508 63.3519 155.513 63.1217 155.517 62.9548C155.517 62.9202 155.519 62.8885 155.519 62.855L165.315 62.8399V60.4284C165.315 58.3429 164.869 56.8498 163.99 55.9937C163.102 55.126 161.622 54.7035 159.468 54.7035H158.528C156.383 54.7035 154.911 55.126 154.026 55.9937C153.139 56.8642 152.709 58.3145 152.709 60.4273V63.6462C152.709 65.7501 153.142 67.1972 154.034 68.0679C154.923 68.9365 156.401 69.3582 158.554 69.3582H159.497C161.397 69.3582 162.821 69.0027 163.726 68.3033C164.653 67.5873 165.18 66.4274 165.288 64.8572L165.317 64.4639L162.491 64.4712ZM162.499 60.3489H155.535V60.1893C155.535 59.0413 155.729 58.2339 156.102 57.856C156.36 57.5964 156.987 57.284 158.528 57.284H159.471C161.02 57.284 161.66 57.5977 161.923 57.8593C162.298 58.2361 162.499 59.0405 162.499 60.1882V60.3489ZM179.794 54.4019H175.241L171.437 58.9223V48.7856H167.718V69.673H171.437V64.0354L175.995 69.6725H180.755L173.916 61.3073L179.794 54.4019ZM181.007 48.7859H184.727V52.7646H181.007V48.7859ZM181.007 54.4019H184.727V69.6728H181.007V54.4019ZM195.009 63.1828V64.4385C195.009 65.6779 194.775 65.9965 194.727 66.0484C194.685 66.0944 194.42 66.3254 193.388 66.3254C192.583 66.3254 192.156 66.1739 192.027 66.0311C191.958 65.9548 191.728 65.6138 191.728 64.4385V57.8247H198.392V54.4011H191.728V51.348H187.996V54.4H186.33V57.8236H187.998V64.1534C187.998 66.2124 188.362 67.6373 189.118 68.5056C189.893 69.3977 191.205 69.851 193.016 69.851C195.281 69.851 196.775 69.4396 197.583 68.5943C198.381 67.7612 198.771 66.3081 198.771 64.1523V63.1828H195.01H195.009ZM78.2896 57.7278C78.9322 57.6169 79.3699 57.3248 79.6038 56.8552C79.8396 56.3857 79.9567 55.7716 79.9567 55.011C79.9567 54.2718 79.8334 53.7178 79.5884 53.3502C79.4027 53.1168 79.1355 52.958 78.7834 52.8725C78.4333 52.7878 77.8712 52.744 77.0998 52.744H71.8371V57.7798H77.0497C77.6478 57.7776 78.062 57.7614 78.2896 57.7278Z" fill="#136AC9"/>
<path d="M98.506 43H64.2479C62.4673 43 61.0247 44.439 61.0247 46.2137V72.5639C61.0247 74.3367 62.4673 75.7768 64.2468 75.7768H98.506C100.286 75.7768 101.729 74.3367 101.729 72.5639V46.2134C101.729 44.439 100.286 43 98.5058 43H98.506ZM82.8442 68.1476C81.9831 68.9042 80.4811 69.2799 78.3406 69.2799H68.026V49.498H77.9723C80.267 49.498 81.8024 49.9124 82.578 50.7412C83.3719 51.4531 83.7656 52.7556 83.7656 54.6444C83.7656 56.1375 83.4919 57.2363 82.9463 57.9398C82.5116 58.4551 81.8422 58.8165 80.9381 59.0212V59.1251C81.9322 59.236 82.674 59.5436 83.1596 60.0426C83.6461 60.5417 83.9472 61.0935 84.0676 61.6964C84.1849 62.3012 84.2451 62.9907 84.2451 63.7667C84.2451 65.902 83.7768 67.3602 82.8442 68.1474V68.1476ZM92.9127 69.2799L84.2562 59.1565L92.2281 49.4999H96.8788L88.8641 59.1789L97.7 69.2818L92.9127 69.2796V69.2799Z" fill="#136AC9"/>
<path d="M77.7332 60.6831H71.8374V66.0345H77.5273C78.2211 66.0345 78.765 65.9826 79.161 65.8817C79.9925 65.5804 80.4077 64.7708 80.4077 63.4529C80.4077 62.3634 80.2405 61.6241 79.9036 61.2371C79.516 60.8684 78.7935 60.6831 77.7335 60.6831H77.7332Z" fill="#136AC9"/>
<defs>
<filter id="filter0_d_16_53" x="0" y="0" width="260" height="150" filterUnits="userSpaceOnUse" color-interpolation-filters="sRGB">
<feFlood flood-opacity="0" result="BackgroundImageFix"/>
<feColorMatrix in="SourceAlpha" type="matrix" values="0 0 0 0 0 0 0 0 0 0 0 0 0 0 0 0 0 0 127 0" result="hardAlpha"/>
<feOffset dy="15"/>
<feGaussianBlur stdDeviation="12.5"/>
<feColorMatrix type="matrix" values="0 0 0 0 0.757257 0 0 0 0 0.787279 0 0 0 0 0.804167 0 0 0 0.25 0"/>
<feBlend mode="normal" in2="BackgroundImageFix" result="effect1_dropShadow_16_53"/>
<feBlend mode="normal" in="SourceGraphic" in2="effect1_dropShadow_16_53" result="shape"/>
</filter>
</defs>
</svg>
